<?xml version="1.0" encoding="UTF-8" standalone="no"?>
<!-- Created with Inkscape (http://www.inkscape.org/) -->

<svg
   width="106.997mm"
   height="60.091mm"
   viewBox="0 0 106.997 60.090999"
   version="1.1"
   id="svg1"
   xml:space="preserve"
   inkscape:version="1.3.2 (091e20ef0f, 2023-11-25, custom)"
   sodipodi:docname="drawing.svg"
   inkscape:export-filename="../Branching-Process-Models/drawing.pdf"
   inkscape:export-xdpi="96"
   inkscape:export-ydpi="96"
   xmlns:inkscape="http://www.inkscape.org/namespaces/inkscape"
   xmlns:sodipodi="http://sodipodi.sourceforge.net/DTD/sodipodi-0.dtd"
   xmlns="http://www.w3.org/2000/svg"
   xmlns:svg="http://www.w3.org/2000/svg"><sodipodi:namedview
     id="namedview1"
     pagecolor="#ffffff"
     bordercolor="#000000"
     borderopacity="0.25"
     inkscape:showpageshadow="2"
     inkscape:pageopacity="0.0"
     inkscape:pagecheckerboard="0"
     inkscape:deskcolor="#d1d1d1"
     inkscape:document-units="mm"
     inkscape:zoom="2.3139161"
     inkscape:cx="179.7818"
     inkscape:cy="98.534255"
     inkscape:window-width="1920"
     inkscape:window-height="1026"
     inkscape:window-x="0"
     inkscape:window-y="26"
     inkscape:window-maximized="1"
     inkscape:current-layer="layer1"
     showguides="true"><sodipodi:guide
       position="37.618507,59.949736"
       orientation="0,-1"
       id="guide9"
       inkscape:locked="false" /><sodipodi:guide
       position="35.978771,56.050045"
       orientation="0,-1"
       id="guide10"
       inkscape:locked="false" /><sodipodi:guide
       position="21.032755,110.24933"
       orientation="1,0"
       id="guide57"
       inkscape:locked="false" /><sodipodi:guide
       position="33.464107,81.394667"
       orientation="1,0"
       id="guide58"
       inkscape:locked="false" /><sodipodi:guide
       position="58.647081,74.205436"
       orientation="1,0"
       id="guide59"
       inkscape:locked="false" /><sodipodi:guide
       position="70.939079,71.133966"
       orientation="1,0"
       id="guide60"
       inkscape:locked="false" /><sodipodi:guide
       position="96.264152,75.194106"
       orientation="1,0"
       id="guide61"
       inkscape:locked="false" /><sodipodi:guide
       position="-74.60272,26.274428"
       orientation="0,-1"
       id="guide101"
       inkscape:locked="false" /></sodipodi:namedview><defs
     id="defs1"><marker
       style="overflow:visible"
       id="ArrowTriangleStylized"
       refX="0"
       refY="0"
       orient="auto-start-reverse"
       inkscape:stockid="Stylized triangle arrow"
       markerWidth="1"
       markerHeight="1"
       viewBox="0 0 1 1"
       inkscape:isstock="true"
       inkscape:collect="always"
       preserveAspectRatio="xMidYMid"><path
         transform="scale(0.5)"
         style="fill:context-stroke;fill-rule:evenodd;stroke:context-stroke;stroke-width:1pt"
         d="m 6,0 c -3,1 -7,3 -9,5 0,0 0,-4 2,-5 -2,-1 -2,-5 -2,-5 2,2 6,4 9,5 z"
         id="path104" /></marker><marker
       style="overflow:visible"
       id="ArrowTriangleStylized-9"
       refX="0"
       refY="0"
       orient="auto-start-reverse"
       inkscape:stockid="Stylized triangle arrow"
       markerWidth="1"
       markerHeight="1"
       viewBox="0 0 1 1"
       inkscape:isstock="true"
       inkscape:collect="always"
       preserveAspectRatio="xMidYMid"><path
         transform="scale(0.5)"
         style="fill:context-stroke;fill-rule:evenodd;stroke:context-stroke;stroke-width:1pt"
         d="m 6,0 c -3,1 -7,3 -9,5 0,0 0,-4 2,-5 -2,-1 -2,-5 -2,-5 2,2 6,4 9,5 z"
         id="path104-0" /></marker><marker
       style="overflow:visible"
       id="ArrowTriangleStylized-9-6"
       refX="0"
       refY="0"
       orient="auto-start-reverse"
       inkscape:stockid="Stylized triangle arrow"
       markerWidth="1"
       markerHeight="1"
       viewBox="0 0 1 1"
       inkscape:isstock="true"
       inkscape:collect="always"
       preserveAspectRatio="xMidYMid"><path
         transform="scale(0.5)"
         style="fill:context-stroke;fill-rule:evenodd;stroke:context-stroke;stroke-width:1pt"
         d="m 6,0 c -3,1 -7,3 -9,5 0,0 0,-4 2,-5 -2,-1 -2,-5 -2,-5 2,2 6,4 9,5 z"
         id="path104-0-3" /></marker></defs><g
     inkscape:label="Layer 1"
     inkscape:groupmode="layer"
     id="layer1"
     transform="translate(-3.9764, -2.82916)"><g
       inkscape:label=""
       transform="translate(8.5133548,6.9743894)"
       id="g1"><g
         fill="#000000"
         fill-opacity="1"
         id="g14"
         transform="matrix(0.352778,0,0,0.352778,-0.857426,-0.660444)"><g
           id="use7"
           transform="translate(1.993,10.294)"><path
             d="m 2.59375,-7.25 c 0,-0.453125 0.03125,-0.5625 0.9375,-0.5625 H 3.796875 V -8.15625 C 3.5,-8.140625 2.46875,-8.140625 2.109375,-8.140625 c -0.359375,0 -1.390625,0 -1.671875,-0.015625 v 0.34375 h 0.25 c 0.90625,0 0.9375,0.109375 0.9375,0.5625 v 6.34375 c 0,0.4375 -0.03125,0.5625 -0.9375,0.5625 h -0.25 V 0 c 0.28125,-0.03125 1.3125,-0.03125 1.671875,-0.03125 0.359375,0 1.390625,0 1.6875,0.03125 V -0.34375 H 3.53125 c -0.90625,0 -0.9375,-0.125 -0.9375,-0.5625 z m 0,0"
             id="path14" /></g><g
           id="use8"
           transform="translate(6.2155771,10.294)"><path
             d="m 5.3125,-2.90625 c 0,-1.109375 0,-1.4375 -0.265625,-1.828125 -0.34375,-0.46875 -0.90625,-0.53125 -1.3125,-0.53125 -1.171875,0 -1.625,0.984375 -1.71875,1.21875 v -1.21875 l -1.640625,0.125 v 0.34375 c 0.8125,0 0.921875,0.09375 0.921875,0.671875 v 3.234375 c 0,0.546875 -0.140625,0.546875 -0.921875,0.546875 V 0 c 0.3125,-0.03125 0.96875,-0.03125 1.296875,-0.03125 0.34375,0 1,0 1.296875,0.03125 v -0.34375 c -0.75,0 -0.90625,0 -0.90625,-0.546875 v -2.21875 c 0,-1.25 0.828125,-1.921875 1.578125,-1.921875 0.734375,0 0.90625,0.609375 0.90625,1.34375 v 2.796875 c 0,0.546875 -0.140625,0.546875 -0.90625,0.546875 V 0 c 0.296875,-0.03125 0.953125,-0.03125 1.28125,-0.03125 0.34375,0 1,0 1.3125,0.03125 v -0.34375 c -0.609375,0 -0.90625,0 -0.921875,-0.359375 z m 0,0"
             id="path15" /></g><g
           id="use9"
           transform="translate(12.719205,10.294)"><path
             d="m 2.0625,-4.8125 h 1.34375 v -0.34375 h -1.375 v -1.390625 c 0,-1.078125 0.546875,-1.625 1.046875,-1.625 0.09375,0 0.265625,0.015625 0.40625,0.09375 -0.046875,0.015625 -0.34375,0.125 -0.34375,0.46875 0,0.265625 0.1875,0.46875 0.46875,0.46875 0.28125,0 0.484375,-0.203125 0.484375,-0.484375 0,-0.4375 -0.4375,-0.796875 -1.015625,-0.796875 -0.828125,0 -1.78125,0.65625 -1.78125,1.875 V -5.15625 H 0.375 v 0.34375 h 0.921875 v 3.921875 c 0,0.546875 -0.125,0.546875 -0.90625,0.546875 V 0 c 0.34375,-0.03125 1,-0.03125 1.359375,-0.03125 0.3125,0 1.171875,0 1.4375,0.03125 V -0.34375 H 2.953125 c -0.875,0 -0.890625,-0.140625 -0.890625,-0.5625 z m 0,0"
             id="path16" /></g><g
           id="use10"
           transform="translate(16.296202,10.294)"><path
             d="m 4.578125,-2.765625 c 0.265625,0 0.28125,0 0.28125,-0.234375 0,-1.203125 -0.640625,-2.328125 -2.09375,-2.328125 -1.359375,0 -2.40625,1.234375 -2.40625,2.703125 0,1.578125 1.21875,2.75 2.546875,2.75 1.421875,0 1.953125,-1.296875 1.953125,-1.546875 0,-0.078125 -0.046875,-0.125 -0.125,-0.125 -0.09375,0 -0.125,0.0625 -0.140625,0.125 -0.3125,1 -1.109375,1.28125 -1.625,1.28125 -0.5,0 -1.703125,-0.34375 -1.703125,-2.40625 v -0.21875 z M 1.28125,-3 c 0.09375,-1.875 1.140625,-2.09375 1.484375,-2.09375 1.28125,0 1.34375,1.6875 1.359375,2.09375 z m 0,0"
             id="path17" /></g><g
           id="use11"
           transform="translate(21.499104,10.294)"><path
             d="m 4.328125,-4.421875 c -0.140625,0 -0.59375,0 -0.59375,0.484375 0,0.296875 0.203125,0.5 0.5,0.5 0.265625,0 0.5,-0.171875 0.5,-0.515625 0,-0.796875 -0.84375,-1.375 -1.8125,-1.375 -1.390625,0 -2.5,1.234375 -2.5,2.75 0,1.53125 1.140625,2.703125 2.5,2.703125 1.578125,0 1.9375,-1.4375 1.9375,-1.546875 0,-0.109375 -0.09375,-0.109375 -0.125,-0.109375 -0.109375,0 -0.125,0.03125 -0.15625,0.1875 C 4.3125,-0.5 3.671875,-0.140625 3.03125,-0.140625 c -0.734375,0 -1.703125,-0.640625 -1.703125,-2.453125 0,-1.984375 1.015625,-2.46875 1.609375,-2.46875 0.453125,0 1.109375,0.171875 1.390625,0.640625 z m 0,0"
             id="path18" /></g><g
           id="use12"
           transform="translate(26.702007,10.294)"><path
             d="M 2.015625,-4.8125 H 3.6875 V -5.15625 H 2.015625 v -2.1875 H 1.75 C 1.734375,-6.234375 1.296875,-5.078125 0.21875,-5.046875 V -4.8125 h 1.015625 v 3.328125 c 0,1.328125 0.875,1.609375 1.515625,1.609375 0.75,0 1.140625,-0.75 1.140625,-1.609375 V -2.15625 h -0.25 V -1.5 c 0,0.859375 -0.359375,1.359375 -0.8125,1.359375 -0.8125,0 -0.8125,-1.109375 -0.8125,-1.3125 z m 0,0"
             id="path19" /></g><g
           id="use13"
           transform="translate(31.254547,10.294)"><path
             d="m 4.578125,-2.765625 c 0.265625,0 0.28125,0 0.28125,-0.234375 0,-1.203125 -0.640625,-2.328125 -2.09375,-2.328125 -1.359375,0 -2.40625,1.234375 -2.40625,2.703125 0,1.578125 1.21875,2.75 2.546875,2.75 1.421875,0 1.953125,-1.296875 1.953125,-1.546875 0,-0.078125 -0.046875,-0.125 -0.125,-0.125 -0.09375,0 -0.125,0.0625 -0.140625,0.125 -0.3125,1 -1.109375,1.28125 -1.625,1.28125 -0.5,0 -1.703125,-0.34375 -1.703125,-2.40625 v -0.21875 z M 1.28125,-3 c 0.09375,-1.875 1.140625,-2.09375 1.484375,-2.09375 1.28125,0 1.34375,1.6875 1.359375,2.09375 z m 0,0"
             id="path20" /></g><g
           id="use14"
           transform="translate(36.457451,10.294)"><path
             d="M 3.578125,-8.15625 V -7.8125 C 4.40625,-7.8125 4.5,-7.734375 4.5,-7.140625 V -4.5 C 4.25,-4.859375 3.734375,-5.265625 3,-5.265625 c -1.390625,0 -2.578125,1.171875 -2.578125,2.703125 0,1.515625 1.125,2.6875 2.453125,2.6875 0.90625,0 1.421875,-0.609375 1.59375,-0.828125 V 0.125 L 6.15625,0 V -0.34375 C 5.34375,-0.34375 5.25,-0.4375 5.25,-1.015625 v -7.28125 z m 0.890625,6.75 c 0,0.21875 0,0.265625 -0.171875,0.515625 -0.28125,0.421875 -0.765625,0.765625 -1.375,0.765625 -0.296875,0 -1.59375,-0.109375 -1.59375,-2.4375 0,-0.859375 0.140625,-1.328125 0.40625,-1.734375 0.234375,-0.359375 0.71875,-0.734375 1.3125,-0.734375 0.75,0 1.15625,0.53125 1.28125,0.734375 0.140625,0.203125 0.140625,0.21875 0.140625,0.4375 z m 0,0"
             id="path21" /></g></g></g><g
       inkscape:label=""
       transform="translate(6.9762862,11.032459)"
       id="g9"><g
         fill="#000000"
         fill-opacity="1"
         id="g17"
         transform="matrix(0.352778,0,0,0.352778,-0.857426,-0.704541)"><g
           id="g2"
           transform="translate(1.993,10.294)"><path
             d="m 2.59375,-7.25 c 0,-0.453125 0.03125,-0.5625 0.9375,-0.5625 H 3.796875 V -8.15625 C 3.5,-8.140625 2.46875,-8.140625 2.109375,-8.140625 c -0.359375,0 -1.390625,0 -1.671875,-0.015625 v 0.34375 h 0.25 c 0.90625,0 0.9375,0.109375 0.9375,0.5625 v 6.34375 c 0,0.4375 -0.03125,0.5625 -0.9375,0.5625 h -0.25 V 0 c 0.28125,-0.03125 1.3125,-0.03125 1.671875,-0.03125 0.359375,0 1.390625,0 1.6875,0.03125 V -0.34375 H 3.53125 c -0.90625,0 -0.9375,-0.125 -0.9375,-0.5625 z m 0,0"
             id="path1" /></g><g
           id="g3"
           transform="translate(6.2155771,10.294)"><path
             d="m 5.3125,-2.90625 c 0,-1.109375 0,-1.4375 -0.265625,-1.828125 -0.34375,-0.46875 -0.90625,-0.53125 -1.3125,-0.53125 -1.171875,0 -1.625,0.984375 -1.71875,1.21875 v -1.21875 l -1.640625,0.125 v 0.34375 c 0.8125,0 0.921875,0.09375 0.921875,0.671875 v 3.234375 c 0,0.546875 -0.140625,0.546875 -0.921875,0.546875 V 0 c 0.3125,-0.03125 0.96875,-0.03125 1.296875,-0.03125 0.34375,0 1,0 1.296875,0.03125 v -0.34375 c -0.75,0 -0.90625,0 -0.90625,-0.546875 v -2.21875 c 0,-1.25 0.828125,-1.921875 1.578125,-1.921875 0.734375,0 0.90625,0.609375 0.90625,1.34375 v 2.796875 c 0,0.546875 -0.140625,0.546875 -0.90625,0.546875 V 0 c 0.296875,-0.03125 0.953125,-0.03125 1.28125,-0.03125 0.34375,0 1,0 1.3125,0.03125 v -0.34375 c -0.609375,0 -0.90625,0 -0.921875,-0.359375 z m 0,0"
             id="path2" /></g><g
           id="g4"
           transform="translate(12.719205,10.294)"><path
             d="M 3.578125,-8.15625 V -7.8125 C 4.40625,-7.8125 4.5,-7.734375 4.5,-7.140625 V -4.5 C 4.25,-4.859375 3.734375,-5.265625 3,-5.265625 c -1.390625,0 -2.578125,1.171875 -2.578125,2.703125 0,1.515625 1.125,2.6875 2.453125,2.6875 0.90625,0 1.421875,-0.609375 1.59375,-0.828125 V 0.125 L 6.15625,0 V -0.34375 C 5.34375,-0.34375 5.25,-0.4375 5.25,-1.015625 v -7.28125 z m 0.890625,6.75 c 0,0.21875 0,0.265625 -0.171875,0.515625 -0.28125,0.421875 -0.765625,0.765625 -1.375,0.765625 -0.296875,0 -1.59375,-0.109375 -1.59375,-2.4375 0,-0.859375 0.140625,-1.328125 0.40625,-1.734375 0.234375,-0.359375 0.71875,-0.734375 1.3125,-0.734375 0.75,0 1.15625,0.53125 1.28125,0.734375 0.140625,0.203125 0.140625,0.21875 0.140625,0.4375 z m 0,0"
             id="path3" /></g><g
           id="g5"
           transform="translate(19.222834,10.294)"><path
             d="m 2.078125,-7.359375 c 0,-0.3125 -0.25,-0.59375 -0.578125,-0.59375 -0.3125,0 -0.578125,0.25 -0.578125,0.578125 0,0.359375 0.28125,0.578125 0.578125,0.578125 0.359375,0 0.578125,-0.296875 0.578125,-0.5625 z M 0.4375,-5.140625 v 0.34375 c 0.75,0 0.859375,0.078125 0.859375,0.65625 v 3.25 c 0,0.546875 -0.125,0.546875 -0.90625,0.546875 V 0 c 0.34375,-0.03125 0.90625,-0.03125 1.265625,-0.03125 0.125,0 0.8125,0 1.21875,0.03125 v -0.34375 c -0.765625,0 -0.8125,-0.0625 -0.8125,-0.53125 v -4.390625 z m 0,0"
             id="path4" /></g><g
           id="g6"
           transform="translate(22.474649,10.294)"><path
             d="M 4.875,-4.015625 C 4.984375,-4.28125 5.1875,-4.796875 5.953125,-4.8125 V -5.15625 C 5.609375,-5.125 5.4375,-5.125 5.0625,-5.125 c -0.25,0 -0.421875,0 -0.96875,-0.03125 v 0.34375 c 0.5,0.03125 0.5625,0.390625 0.5625,0.515625 0,0.109375 -0.03125,0.171875 -0.09375,0.3125 l -1.21875,3.09375 -1.328125,-3.375 C 1.953125,-4.4375 1.9375,-4.4375 1.9375,-4.5 c 0,-0.3125 0.453125,-0.3125 0.671875,-0.3125 V -5.15625 C 2.3125,-5.125 1.6875,-5.125 1.359375,-5.125 c -0.390625,0 -0.421875,0 -1.140625,-0.03125 v 0.34375 c 0.671875,0 0.78125,0.0625 0.921875,0.421875 l 1.71875,4.28125 C 2.921875,0.0625 2.9375,0.125 3.078125,0.125 c 0.09375,0 0.15625,-0.03125 0.25,-0.234375 z m 0,0"
             id="path5" /></g><g
           id="g7"
           transform="translate(28.653095,10.294)"><path
             d="m 2.078125,-7.359375 c 0,-0.3125 -0.25,-0.59375 -0.578125,-0.59375 -0.3125,0 -0.578125,0.25 -0.578125,0.578125 0,0.359375 0.28125,0.578125 0.578125,0.578125 0.359375,0 0.578125,-0.296875 0.578125,-0.5625 z M 0.4375,-5.140625 v 0.34375 c 0.75,0 0.859375,0.078125 0.859375,0.65625 v 3.25 c 0,0.546875 -0.125,0.546875 -0.90625,0.546875 V 0 c 0.34375,-0.03125 0.90625,-0.03125 1.265625,-0.03125 0.125,0 0.8125,0 1.21875,0.03125 v -0.34375 c -0.765625,0 -0.8125,-0.0625 -0.8125,-0.53125 v -4.390625 z m 0,0"
             id="path22" /></g><g
           id="g8"
           transform="translate(31.904909,10.294)"><path
             d="M 3.578125,-8.15625 V -7.8125 C 4.40625,-7.8125 4.5,-7.734375 4.5,-7.140625 V -4.5 C 4.25,-4.859375 3.734375,-5.265625 3,-5.265625 c -1.390625,0 -2.578125,1.171875 -2.578125,2.703125 0,1.515625 1.125,2.6875 2.453125,2.6875 0.90625,0 1.421875,-0.609375 1.59375,-0.828125 V 0.125 L 6.15625,0 V -0.34375 C 5.34375,-0.34375 5.25,-0.4375 5.25,-1.015625 v -7.28125 z m 0.890625,6.75 c 0,0.21875 0,0.265625 -0.171875,0.515625 -0.28125,0.421875 -0.765625,0.765625 -1.375,0.765625 -0.296875,0 -1.59375,-0.109375 -1.59375,-2.4375 0,-0.859375 0.140625,-1.328125 0.40625,-1.734375 0.234375,-0.359375 0.71875,-0.734375 1.3125,-0.734375 0.75,0 1.15625,0.53125 1.28125,0.734375 0.140625,0.203125 0.140625,0.21875 0.140625,0.4375 z m 0,0"
             id="path23" /></g><g
           id="use15"
           transform="translate(38.408539,10.294)"><path
             d="m 3.640625,-5.140625 v 0.34375 c 0.8125,0 0.90625,0.09375 0.90625,0.671875 v 2.140625 C 4.546875,-0.96875 4,-0.125 3.109375,-0.125 2.125,-0.125 2.0625,-0.6875 2.0625,-1.3125 v -3.953125 l -1.6875,0.125 v 0.34375 c 0.921875,0 0.921875,0.046875 0.921875,1.109375 v 1.78125 c 0,0.75 0,1.171875 0.359375,1.578125 C 1.9375,-0.03125 2.421875,0.125 3.03125,0.125 c 0.203125,0 0.59375,0 1,-0.359375 C 4.375,-0.5 4.5625,-0.953125 4.5625,-0.953125 V 0.125 L 6.234375,0 v -0.34375 c -0.8125,0 -0.921875,-0.09375 -0.921875,-0.671875 v -4.25 z m 0,0"
             id="path24" /></g><g
           id="use16"
           transform="translate(44.912167,10.294)"><path
             d="m 4.609375,-3.1875 c 0,-0.65625 0,-1.125 -0.515625,-1.59375 C 3.671875,-5.15625 3.125,-5.328125 2.609375,-5.328125 1.625,-5.328125 0.875,-4.6875 0.875,-3.90625 c 0,0.34375 0.21875,0.515625 0.5,0.515625 0.28125,0 0.484375,-0.203125 0.484375,-0.5 C 1.859375,-4.375 1.4375,-4.375 1.25,-4.375 c 0.28125,-0.5 0.859375,-0.71875 1.328125,-0.71875 0.546875,0 1.265625,0.453125 1.265625,1.53125 v 0.484375 c -2.40625,0.03125 -3.3125,1.03125 -3.3125,1.953125 0,0.953125 1.09375,1.25 1.828125,1.25 0.78125,0 1.328125,-0.484375 1.546875,-1.0625 0.046875,0.5625 0.421875,1 0.9375,1 0.25,0 0.9375,-0.171875 0.9375,-1.125 V -1.734375 H 5.515625 V -1.0625 c 0,0.6875 -0.28125,0.78125 -0.453125,0.78125 -0.453125,0 -0.453125,-0.640625 -0.453125,-0.8125 z m -0.765625,1.5 c 0,1.171875 -0.875,1.5625 -1.390625,1.5625 -0.59375,0 -1.078125,-0.421875 -1.078125,-1 0,-1.578125 2.03125,-1.71875 2.46875,-1.75 z m 0,0"
             id="path25" /></g><g
           id="use17"
           transform="translate(50.765434,10.294)"><path
             d="M 2.0625,-8.296875 0.390625,-8.15625 v 0.34375 c 0.8125,0 0.90625,0.078125 0.90625,0.671875 v 6.25 c 0,0.546875 -0.125,0.546875 -0.90625,0.546875 V 0 c 0.34375,-0.03125 0.921875,-0.03125 1.28125,-0.03125 0.359375,0 0.953125,0 1.296875,0.03125 v -0.34375 c -0.765625,0 -0.90625,0 -0.90625,-0.546875 z m 0,0"
             id="path26" /></g></g></g><g
       style="fill:#d40000"
       id="g10"
       transform="matrix(0.02846689,0,0,0.02846689,14.855487,36.910636)"><path
         d="m -10.9,4.9 c 11.3,0 20.5,9.2 20.5,20.5 0,11.3 -9.2,20.5 -20.5,20.5 -11.3,0 -20.5,-9.2 -20.5,-20.5 0,-11.3 9.2,-20.5 20.5,-20.5 z m 25.8,46.3 h -51.2 c -14.2,0 -25.6,11.4 -25.6,25.6 v 62.6 c 0,4.9 3.9,9 9,9 5.1,0 9,-3.9 9,-9 V 81.9 c 0,-1.4 1.2,-2.6 2.6,-2.6 1.4,0 2.6,1.2 2.6,2.6 v 155.2 c 0,7.7 5.7,14 12.8,14 7.1,0 12.8,-6.3 12.8,-14 v -88.5 c 0,-1.4 1.2,-2.6 2.6,-2.6 1.4,0 2.6,1.2 2.6,2.6 v 88.5 c 0,7.7 5.7,14 12.8,14 7.1,0 12.8,-6.3 12.8,-14 V 81.9 c 0,-1.4 1.2,-2.6 2.6,-2.6 1.4,0 2.6,1.2 2.6,2.6 v 57.6 c 0,4.9 3.9,9 9,9 5.1,0 9,-3.9 9,-9 V 76.8 C 40.5,62.6 28.8,51.2 14.9,51.2 Z"
         id="path1-7"
         style="fill:#d40000" /></g><g
       inkscape:label=""
       transform="translate(43.335019,10.825628)"
       id="g46"><g
   fill="#000000"
   fill-opacity="1"
   id="g35"
   transform="matrix(0.352778,0,0,0.352778,-0.879475,-0.704894)">
    <g
   id="g34"
   transform="translate(1.993,10.295)">
      <path
   d="M 2.609375,-3.796875 H 4.625 c 1.40625,0 2.671875,-0.953125 2.671875,-2.15625 0,-1.15625 -1.15625,-2.203125 -2.765625,-2.203125 H 0.5 v 0.34375 h 0.234375 c 0.875,0 0.90625,0.109375 0.90625,0.5625 v 6.34375 c 0,0.4375 -0.03125,0.5625 -0.90625,0.5625 H 0.5 V 0 c 0.28125,-0.03125 1.265625,-0.03125 1.609375,-0.03125 0.359375,0 1.34375,0 1.625,0.03125 V -0.34375 H 3.5 c -0.859375,0 -0.890625,-0.125 -0.890625,-0.5625 z M 2.578125,-4.09375 v -3.25 c 0,-0.390625 0.03125,-0.46875 0.546875,-0.46875 H 4.25 c 1.9375,0 1.9375,1.34375 1.9375,1.859375 0,0.5 0,1.859375 -1.9375,1.859375 z m 0,0"
   id="path34" />
    </g>
  </g>
  <g
   fill="#000000"
   fill-opacity="1"
   id="g45"
   transform="matrix(0.352778,0,0,0.352778,-0.879475,-0.704894)">
    <g
   id="g36"
   transform="translate(9.6347637,10.295)">
      <path
   d="m 5.484375,-2.5625 c 0,-1.53125 -1.171875,-2.765625 -2.5625,-2.765625 -1.421875,0 -2.5625,1.265625 -2.5625,2.765625 0,1.53125 1.1875,2.6875 2.5625,2.6875 1.40625,0 2.5625,-1.171875 2.5625,-2.6875 z m -2.5625,2.421875 c -0.4375,0 -0.96875,-0.1875 -1.3125,-0.78125 -0.328125,-0.53125 -0.34375,-1.234375 -0.34375,-1.75 0,-0.453125 0,-1.171875 0.375,-1.71875 C 1.96875,-4.90625 2.5,-5.09375 2.921875,-5.09375 c 0.453125,0 0.96875,0.21875 1.28125,0.6875 0.375,0.546875 0.375,1.296875 0.375,1.734375 0,0.421875 0,1.171875 -0.3125,1.734375 C 3.9375,-0.375 3.375,-0.140625 2.921875,-0.140625 Z m 0,0"
   id="path35" />
    </g>
    <g
   id="g37"
   transform="translate(15.48803,10.295)">
      <path
   d="m 2.921875,1.96875 c -0.765625,0 -0.90625,0 -0.90625,-0.53125 V -0.640625 C 2.234375,-0.34375 2.71875,0.125 3.484375,0.125 c 1.375,0 2.59375,-1.171875 2.59375,-2.703125 0,-1.515625 -1.125,-2.6875 -2.4375,-2.6875 -1.046875,0 -1.609375,0.75 -1.640625,0.796875 v -0.796875 l -1.671875,0.125 v 0.34375 c 0.84375,0 0.921875,0.09375 0.921875,0.609375 v 5.625 c 0,0.53125 -0.140625,0.53125 -0.921875,0.53125 V 2.3125 C 0.640625,2.296875 1.296875,2.296875 1.625,2.296875 c 0.34375,0 1,0 1.296875,0.015625 z M 2.015625,-3.8125 c 0,-0.234375 0,-0.234375 0.140625,-0.4375 0.359375,-0.53125 0.9375,-0.765625 1.390625,-0.765625 0.90625,0 1.609375,1.09375 1.609375,2.4375 0,1.421875 -0.8125,2.453125 -1.71875,2.453125 -0.375,0 -0.71875,-0.15625 -0.96875,-0.375 C 2.203125,-0.78125 2.015625,-1.015625 2.015625,-1.34375 Z m 0,0"
   id="path36" />
    </g>
    <g
   id="g38"
   transform="translate(21.991659,10.295)">
      <path
   d="m 3.640625,-5.140625 v 0.34375 c 0.8125,0 0.90625,0.09375 0.90625,0.671875 v 2.140625 C 4.546875,-0.96875 4,-0.125 3.109375,-0.125 2.125,-0.125 2.0625,-0.6875 2.0625,-1.3125 v -3.953125 l -1.6875,0.125 v 0.34375 c 0.921875,0 0.921875,0.046875 0.921875,1.109375 v 1.78125 c 0,0.75 0,1.171875 0.359375,1.578125 C 1.9375,-0.03125 2.421875,0.125 3.03125,0.125 c 0.203125,0 0.59375,0 1,-0.359375 C 4.375,-0.5 4.5625,-0.953125 4.5625,-0.953125 V 0.125 L 6.234375,0 v -0.34375 c -0.8125,0 -0.921875,-0.09375 -0.921875,-0.671875 v -4.25 z m 0,0"
   id="path37" />
    </g>
    <g
   id="g39"
   transform="translate(28.495287,10.295)">
      <path
   d="M 2.0625,-8.296875 0.390625,-8.15625 v 0.34375 c 0.8125,0 0.90625,0.078125 0.90625,0.671875 v 6.25 c 0,0.546875 -0.125,0.546875 -0.90625,0.546875 V 0 c 0.34375,-0.03125 0.921875,-0.03125 1.28125,-0.03125 0.359375,0 0.953125,0 1.296875,0.03125 v -0.34375 c -0.765625,0 -0.90625,0 -0.90625,-0.546875 z m 0,0"
   id="path38" />
    </g>
    <g
   id="g40"
   transform="translate(31.747103,10.295)">
      <path
   d="m 4.609375,-3.1875 c 0,-0.65625 0,-1.125 -0.515625,-1.59375 C 3.671875,-5.15625 3.125,-5.328125 2.609375,-5.328125 1.625,-5.328125 0.875,-4.6875 0.875,-3.90625 c 0,0.34375 0.21875,0.515625 0.5,0.515625 0.28125,0 0.484375,-0.203125 0.484375,-0.5 C 1.859375,-4.375 1.4375,-4.375 1.25,-4.375 c 0.28125,-0.5 0.859375,-0.71875 1.328125,-0.71875 0.546875,0 1.265625,0.453125 1.265625,1.53125 v 0.484375 c -2.40625,0.03125 -3.3125,1.03125 -3.3125,1.953125 0,0.953125 1.09375,1.25 1.828125,1.25 0.78125,0 1.328125,-0.484375 1.546875,-1.0625 0.046875,0.5625 0.421875,1 0.9375,1 0.25,0 0.9375,-0.171875 0.9375,-1.125 V -1.734375 H 5.515625 V -1.0625 c 0,0.6875 -0.28125,0.78125 -0.453125,0.78125 -0.453125,0 -0.453125,-0.640625 -0.453125,-0.8125 z m -0.765625,1.5 c 0,1.171875 -0.875,1.5625 -1.390625,1.5625 -0.59375,0 -1.078125,-0.421875 -1.078125,-1 0,-1.578125 2.03125,-1.71875 2.46875,-1.75 z m 0,0"
   id="path39" />
    </g>
    <g
   id="g41"
   transform="translate(37.600368,10.295)">
      <path
   d="M 2.015625,-4.8125 H 3.6875 V -5.15625 H 2.015625 v -2.1875 H 1.75 C 1.734375,-6.234375 1.296875,-5.078125 0.21875,-5.046875 V -4.8125 h 1.015625 v 3.328125 c 0,1.328125 0.875,1.609375 1.515625,1.609375 0.75,0 1.140625,-0.75 1.140625,-1.609375 V -2.15625 h -0.25 V -1.5 c 0,0.859375 -0.359375,1.359375 -0.8125,1.359375 -0.8125,0 -0.8125,-1.109375 -0.8125,-1.3125 z m 0,0"
   id="path40" />
    </g>
    <g
   id="g42"
   transform="translate(42.152908,10.295)">
      <path
   d="m 2.078125,-7.359375 c 0,-0.3125 -0.25,-0.59375 -0.578125,-0.59375 -0.3125,0 -0.578125,0.25 -0.578125,0.578125 0,0.359375 0.28125,0.578125 0.578125,0.578125 0.359375,0 0.578125,-0.296875 0.578125,-0.5625 z M 0.4375,-5.140625 v 0.34375 c 0.75,0 0.859375,0.078125 0.859375,0.65625 v 3.25 c 0,0.546875 -0.125,0.546875 -0.90625,0.546875 V 0 c 0.34375,-0.03125 0.90625,-0.03125 1.265625,-0.03125 0.125,0 0.8125,0 1.21875,0.03125 v -0.34375 c -0.765625,0 -0.8125,-0.0625 -0.8125,-0.53125 v -4.390625 z m 0,0"
   id="path41" />
    </g>
    <g
   id="g43"
   transform="translate(45.40472,10.295)">
      <path
   d="m 5.484375,-2.5625 c 0,-1.53125 -1.171875,-2.765625 -2.5625,-2.765625 -1.421875,0 -2.5625,1.265625 -2.5625,2.765625 0,1.53125 1.1875,2.6875 2.5625,2.6875 1.40625,0 2.5625,-1.171875 2.5625,-2.6875 z m -2.5625,2.421875 c -0.4375,0 -0.96875,-0.1875 -1.3125,-0.78125 -0.328125,-0.53125 -0.34375,-1.234375 -0.34375,-1.75 0,-0.453125 0,-1.171875 0.375,-1.71875 C 1.96875,-4.90625 2.5,-5.09375 2.921875,-5.09375 c 0.453125,0 0.96875,0.21875 1.28125,0.6875 0.375,0.546875 0.375,1.296875 0.375,1.734375 0,0.421875 0,1.171875 -0.3125,1.734375 C 3.9375,-0.375 3.375,-0.140625 2.921875,-0.140625 Z m 0,0"
   id="path42" />
    </g>
    <g
   id="g44"
   transform="translate(51.257988,10.295)">
      <path
   d="m 5.3125,-2.90625 c 0,-1.109375 0,-1.4375 -0.265625,-1.828125 -0.34375,-0.46875 -0.90625,-0.53125 -1.3125,-0.53125 -1.171875,0 -1.625,0.984375 -1.71875,1.21875 v -1.21875 l -1.640625,0.125 v 0.34375 c 0.8125,0 0.921875,0.09375 0.921875,0.671875 v 3.234375 c 0,0.546875 -0.140625,0.546875 -0.921875,0.546875 V 0 c 0.3125,-0.03125 0.96875,-0.03125 1.296875,-0.03125 0.34375,0 1,0 1.296875,0.03125 v -0.34375 c -0.75,0 -0.90625,0 -0.90625,-0.546875 v -2.21875 c 0,-1.25 0.828125,-1.921875 1.578125,-1.921875 0.734375,0 0.90625,0.609375 0.90625,1.34375 v 2.796875 c 0,0.546875 -0.140625,0.546875 -0.90625,0.546875 V 0 c 0.296875,-0.03125 0.953125,-0.03125 1.28125,-0.03125 0.34375,0 1,0 1.3125,0.03125 v -0.34375 c -0.609375,0 -0.90625,0 -0.921875,-0.359375 z m 0,0"
   id="path43" />
    </g>
  </g>
</g><g
       inkscape:label=""
       transform="translate(84.093913,7.1110806)"
       id="g57"><g
   fill="#000000"
   fill-opacity="1"
   id="g48"
   transform="matrix(0.352778,0,0,0.352778,-0.879475,-0.704541)">
    <g
   id="g47"
   transform="translate(1.993,10.294)">
      <path
   d="M 2.609375,-3.796875 H 4.625 c 1.40625,0 2.671875,-0.953125 2.671875,-2.15625 0,-1.15625 -1.15625,-2.203125 -2.765625,-2.203125 H 0.5 v 0.34375 h 0.234375 c 0.875,0 0.90625,0.109375 0.90625,0.5625 v 6.34375 c 0,0.4375 -0.03125,0.5625 -0.90625,0.5625 H 0.5 V 0 c 0.28125,-0.03125 1.265625,-0.03125 1.609375,-0.03125 0.359375,0 1.34375,0 1.625,0.03125 V -0.34375 H 3.5 c -0.859375,0 -0.890625,-0.125 -0.890625,-0.5625 z M 2.578125,-4.09375 v -3.25 c 0,-0.390625 0.03125,-0.46875 0.546875,-0.46875 H 4.25 c 1.9375,0 1.9375,1.34375 1.9375,1.859375 0,0.5 0,1.859375 -1.9375,1.859375 z m 0,0"
   id="path46" />
    </g>
  </g>
  <g
   fill="#000000"
   fill-opacity="1"
   id="g56"
   transform="matrix(0.352778,0,0,0.352778,-0.879475,-0.704541)">
    <g
   id="g49"
   transform="translate(9.6347637,10.294)">
      <path
   d="m 5.484375,-2.5625 c 0,-1.53125 -1.171875,-2.765625 -2.5625,-2.765625 -1.421875,0 -2.5625,1.265625 -2.5625,2.765625 0,1.53125 1.1875,2.6875 2.5625,2.6875 1.40625,0 2.5625,-1.171875 2.5625,-2.6875 z m -2.5625,2.421875 c -0.4375,0 -0.96875,-0.1875 -1.3125,-0.78125 -0.328125,-0.53125 -0.34375,-1.234375 -0.34375,-1.75 0,-0.453125 0,-1.171875 0.375,-1.71875 C 1.96875,-4.90625 2.5,-5.09375 2.921875,-5.09375 c 0.453125,0 0.96875,0.21875 1.28125,0.6875 0.375,0.546875 0.375,1.296875 0.375,1.734375 0,0.421875 0,1.171875 -0.3125,1.734375 C 3.9375,-0.375 3.375,-0.140625 2.921875,-0.140625 Z m 0,0"
   id="path48" />
    </g>
    <g
   id="g50"
   transform="translate(15.48803,10.294)">
      <path
   d="m 3.921875,-5.0625 c 0,-0.203125 0,-0.265625 -0.125,-0.265625 -0.09375,0 -0.3125,0.265625 -0.40625,0.375 -0.359375,-0.3125 -0.734375,-0.375 -1.125,-0.375 -1.4375,0 -1.875,0.78125 -1.875,1.4375 0,0.140625 0,0.5625 0.453125,0.96875 0.390625,0.34375 0.796875,0.421875 1.34375,0.53125 0.65625,0.125 0.8125,0.171875 1.109375,0.40625 0.21875,0.171875 0.375,0.4375 0.375,0.78125 C 3.671875,-0.6875 3.375,-0.125 2.3125,-0.125 1.53125,-0.125 0.953125,-0.578125 0.6875,-1.765625 0.640625,-1.984375 0.640625,-2 0.640625,-2.015625 0.609375,-2.0625 0.5625,-2.0625 0.53125,-2.0625 0.390625,-2.0625 0.390625,-2 0.390625,-1.78125 v 1.625 c 0,0.21875 0,0.28125 0.125,0.28125 0.0625,0 0.0625,-0.015625 0.265625,-0.265625 C 0.84375,-0.234375 0.84375,-0.25 1.03125,-0.4375 1.484375,0.125 2.125,0.125 2.328125,0.125 c 1.25,0 1.875,-0.703125 1.875,-1.640625 0,-0.640625 -0.390625,-1.03125 -0.5,-1.140625 -0.421875,-0.375 -0.75,-0.4375 -1.546875,-0.578125 -0.34375,-0.078125 -1.21875,-0.25 -1.21875,-0.96875 0,-0.359375 0.25,-0.90625 1.328125,-0.90625 1.296875,0 1.375,1.109375 1.390625,1.46875 0.015625,0.109375 0.09375,0.109375 0.140625,0.109375 0.125,0 0.125,-0.0625 0.125,-0.28125 z m 0,0"
   id="path49" />
    </g>
    <g
   id="g51"
   transform="translate(20.105127,10.294)">
      <path
   d="m 3.921875,-5.0625 c 0,-0.203125 0,-0.265625 -0.125,-0.265625 -0.09375,0 -0.3125,0.265625 -0.40625,0.375 -0.359375,-0.3125 -0.734375,-0.375 -1.125,-0.375 -1.4375,0 -1.875,0.78125 -1.875,1.4375 0,0.140625 0,0.5625 0.453125,0.96875 0.390625,0.34375 0.796875,0.421875 1.34375,0.53125 0.65625,0.125 0.8125,0.171875 1.109375,0.40625 0.21875,0.171875 0.375,0.4375 0.375,0.78125 C 3.671875,-0.6875 3.375,-0.125 2.3125,-0.125 1.53125,-0.125 0.953125,-0.578125 0.6875,-1.765625 0.640625,-1.984375 0.640625,-2 0.640625,-2.015625 0.609375,-2.0625 0.5625,-2.0625 0.53125,-2.0625 0.390625,-2.0625 0.390625,-2 0.390625,-1.78125 v 1.625 c 0,0.21875 0,0.28125 0.125,0.28125 0.0625,0 0.0625,-0.015625 0.265625,-0.265625 C 0.84375,-0.234375 0.84375,-0.25 1.03125,-0.4375 1.484375,0.125 2.125,0.125 2.328125,0.125 c 1.25,0 1.875,-0.703125 1.875,-1.640625 0,-0.640625 -0.390625,-1.03125 -0.5,-1.140625 -0.421875,-0.375 -0.75,-0.4375 -1.546875,-0.578125 -0.34375,-0.078125 -1.21875,-0.25 -1.21875,-0.96875 0,-0.359375 0.25,-0.90625 1.328125,-0.90625 1.296875,0 1.375,1.109375 1.390625,1.46875 0.015625,0.109375 0.09375,0.109375 0.140625,0.109375 0.125,0 0.125,-0.0625 0.125,-0.28125 z m 0,0"
   id="path50" />
    </g>
    <g
   id="g52"
   transform="translate(24.722225,10.294)">
      <path
   d="m 2.078125,-7.359375 c 0,-0.3125 -0.25,-0.59375 -0.578125,-0.59375 -0.3125,0 -0.578125,0.25 -0.578125,0.578125 0,0.359375 0.28125,0.578125 0.578125,0.578125 0.359375,0 0.578125,-0.296875 0.578125,-0.5625 z M 0.4375,-5.140625 v 0.34375 c 0.75,0 0.859375,0.078125 0.859375,0.65625 v 3.25 c 0,0.546875 -0.125,0.546875 -0.90625,0.546875 V 0 c 0.34375,-0.03125 0.90625,-0.03125 1.265625,-0.03125 0.125,0 0.8125,0 1.21875,0.03125 v -0.34375 c -0.765625,0 -0.8125,-0.0625 -0.8125,-0.53125 v -4.390625 z m 0,0"
   id="path51" />
    </g>
    <g
   id="g53"
   transform="translate(27.974041,10.294)">
      <path
   d="M 2,-8.296875 0.328125,-8.15625 v 0.34375 c 0.8125,0 0.921875,0.078125 0.921875,0.671875 V 0 H 1.5 C 1.546875,-0.09375 1.890625,-0.6875 1.9375,-0.78125 2.21875,-0.328125 2.71875,0.125 3.484375,0.125 c 1.375,0 2.59375,-1.171875 2.59375,-2.703125 0,-1.515625 -1.125,-2.6875 -2.453125,-2.6875 -0.65625,0 -1.21875,0.296875 -1.625,0.796875 z m 0.015625,4.46875 c 0,-0.21875 0,-0.234375 0.140625,-0.421875 0.28125,-0.4375 0.8125,-0.78125 1.390625,-0.78125 0.359375,0 1.609375,0.140625 1.609375,2.4375 0,0.796875 -0.109375,1.296875 -0.40625,1.734375 -0.234375,0.375 -0.703125,0.734375 -1.3125,0.734375 -0.640625,0 -1.0625,-0.40625 -1.265625,-0.734375 -0.15625,-0.25 -0.15625,-0.296875 -0.15625,-0.5 z m 0,0"
   id="path52" />
    </g>
    <g
   id="g54"
   transform="translate(34.477669,10.294)">
      <path
   d="M 2.0625,-8.296875 0.390625,-8.15625 v 0.34375 c 0.8125,0 0.90625,0.078125 0.90625,0.671875 v 6.25 c 0,0.546875 -0.125,0.546875 -0.90625,0.546875 V 0 c 0.34375,-0.03125 0.921875,-0.03125 1.28125,-0.03125 0.359375,0 0.953125,0 1.296875,0.03125 v -0.34375 c -0.765625,0 -0.90625,0 -0.90625,-0.546875 z m 0,0"
   id="path53" />
    </g>
    <g
   id="g55"
   transform="translate(37.729485,10.294)">
      <path
   d="m 4.578125,-2.765625 c 0.265625,0 0.28125,0 0.28125,-0.234375 0,-1.203125 -0.640625,-2.328125 -2.09375,-2.328125 -1.359375,0 -2.40625,1.234375 -2.40625,2.703125 0,1.578125 1.21875,2.75 2.546875,2.75 1.421875,0 1.953125,-1.296875 1.953125,-1.546875 0,-0.078125 -0.046875,-0.125 -0.125,-0.125 -0.09375,0 -0.125,0.0625 -0.140625,0.125 -0.3125,1 -1.109375,1.28125 -1.625,1.28125 -0.5,0 -1.703125,-0.34375 -1.703125,-2.40625 v -0.21875 z M 1.28125,-3 c 0.09375,-1.875 1.140625,-2.09375 1.484375,-2.09375 1.28125,0 1.34375,1.6875 1.359375,2.09375 z m 0,0"
   id="path54" />
    </g>
  </g>
</g><g
       inkscape:label=""
       transform="translate(82.047245,11.148563)"
       id="g71"><g
   fill="#000000"
   fill-opacity="1"
   id="g70"
   transform="matrix(0.352778,0,0,0.352778,-0.929084,-0.613525)">
    <g
   id="g61"
   transform="translate(1.993,10.161)">
      <path
   d="m 8.453125,-4.046875 c 0,-2.484375 -1.8125,-4.375 -3.90625,-4.375 -2.125,0 -3.90625,1.921875 -3.90625,4.375 0,2.421875 1.8125,4.296875 3.90625,4.296875 2.140625,0 3.90625,-1.90625 3.90625,-4.296875 z M 4.546875,-0.03125 C 3.328125,-0.03125 1.75,-1.171875 1.75,-4.234375 c 0,-2.921875 1.671875,-3.921875 2.796875,-3.921875 1.171875,0 2.796875,1.03125 2.796875,3.921875 0,3.109375 -1.625,4.203125 -2.796875,4.203125 z m 0,0"
   id="path61" />
    </g>
    <g
   id="g62"
   transform="translate(11.09808,10.161)">
      <path
   d="m 3.640625,-5.140625 v 0.34375 c 0.8125,0 0.90625,0.09375 0.90625,0.671875 v 2.140625 C 4.546875,-0.96875 4,-0.125 3.109375,-0.125 2.125,-0.125 2.0625,-0.6875 2.0625,-1.3125 v -3.953125 l -1.6875,0.125 v 0.34375 c 0.921875,0 0.921875,0.046875 0.921875,1.109375 v 1.78125 c 0,0.75 0,1.171875 0.359375,1.578125 C 1.9375,-0.03125 2.421875,0.125 3.03125,0.125 c 0.203125,0 0.59375,0 1,-0.359375 C 4.375,-0.5 4.5625,-0.953125 4.5625,-0.953125 V 0.125 L 6.234375,0 v -0.34375 c -0.8125,0 -0.921875,-0.09375 -0.921875,-0.671875 v -4.25 z m 0,0"
   id="path62" />
    </g>
    <g
   id="g63"
   transform="translate(17.601709,10.161)">
      <path
   d="M 2.015625,-4.8125 H 3.6875 V -5.15625 H 2.015625 v -2.1875 H 1.75 C 1.734375,-6.234375 1.296875,-5.078125 0.21875,-5.046875 V -4.8125 h 1.015625 v 3.328125 c 0,1.328125 0.875,1.609375 1.515625,1.609375 0.75,0 1.140625,-0.75 1.140625,-1.609375 V -2.15625 h -0.25 V -1.5 c 0,0.859375 -0.359375,1.359375 -0.8125,1.359375 -0.8125,0 -0.8125,-1.109375 -0.8125,-1.3125 z m 0,0"
   id="path63" />
    </g>
    <g
   id="g64"
   transform="translate(22.154249,10.161)">
      <path
   d="m 4.328125,-4.421875 c -0.140625,0 -0.59375,0 -0.59375,0.484375 0,0.296875 0.203125,0.5 0.5,0.5 0.265625,0 0.5,-0.171875 0.5,-0.515625 0,-0.796875 -0.84375,-1.375 -1.8125,-1.375 -1.390625,0 -2.5,1.234375 -2.5,2.75 0,1.53125 1.140625,2.703125 2.5,2.703125 1.578125,0 1.9375,-1.4375 1.9375,-1.546875 0,-0.109375 -0.09375,-0.109375 -0.125,-0.109375 -0.109375,0 -0.125,0.03125 -0.15625,0.1875 C 4.3125,-0.5 3.671875,-0.140625 3.03125,-0.140625 c -0.734375,0 -1.703125,-0.640625 -1.703125,-2.453125 0,-1.984375 1.015625,-2.46875 1.609375,-2.46875 0.453125,0 1.109375,0.171875 1.390625,0.640625 z m 0,0"
   id="path64" />
    </g>
    <g
   id="g65"
   transform="translate(27.357153,10.161)">
      <path
   d="m 5.484375,-2.5625 c 0,-1.53125 -1.171875,-2.765625 -2.5625,-2.765625 -1.421875,0 -2.5625,1.265625 -2.5625,2.765625 0,1.53125 1.1875,2.6875 2.5625,2.6875 1.40625,0 2.5625,-1.171875 2.5625,-2.6875 z m -2.5625,2.421875 c -0.4375,0 -0.96875,-0.1875 -1.3125,-0.78125 -0.328125,-0.53125 -0.34375,-1.234375 -0.34375,-1.75 0,-0.453125 0,-1.171875 0.375,-1.71875 C 1.96875,-4.90625 2.5,-5.09375 2.921875,-5.09375 c 0.453125,0 0.96875,0.21875 1.28125,0.6875 0.375,0.546875 0.375,1.296875 0.375,1.734375 0,0.421875 0,1.171875 -0.3125,1.734375 C 3.9375,-0.375 3.375,-0.140625 2.921875,-0.140625 Z m 0,0"
   id="path65" />
    </g>
    <g
   id="g66"
   transform="translate(33.210419,10.161)">
      <path
   d="m 8.578125,-2.90625 c 0,-1.109375 0,-1.4375 -0.28125,-1.828125 -0.34375,-0.46875 -0.90625,-0.53125 -1.3125,-0.53125 -1,0 -1.5,0.71875 -1.6875,1.171875 -0.171875,-0.921875 -0.8125,-1.171875 -1.5625,-1.171875 -1.171875,0 -1.625,0.984375 -1.71875,1.21875 v -1.21875 l -1.640625,0.125 v 0.34375 c 0.8125,0 0.921875,0.09375 0.921875,0.671875 v 3.234375 c 0,0.546875 -0.140625,0.546875 -0.921875,0.546875 V 0 c 0.3125,-0.03125 0.96875,-0.03125 1.296875,-0.03125 0.34375,0 1,0 1.296875,0.03125 v -0.34375 c -0.75,0 -0.90625,0 -0.90625,-0.546875 v -2.21875 c 0,-1.25 0.828125,-1.921875 1.578125,-1.921875 0.734375,0 0.90625,0.609375 0.90625,1.34375 v 2.796875 c 0,0.546875 -0.140625,0.546875 -0.90625,0.546875 V 0 c 0.296875,-0.03125 0.953125,-0.03125 1.28125,-0.03125 0.34375,0 1,0 1.3125,0.03125 v -0.34375 c -0.765625,0 -0.921875,0 -0.921875,-0.546875 v -2.21875 c 0,-1.25 0.828125,-1.921875 1.578125,-1.921875 0.734375,0 0.90625,0.609375 0.90625,1.34375 v 2.796875 c 0,0.546875 -0.140625,0.546875 -0.90625,0.546875 V 0 c 0.3125,-0.03125 0.953125,-0.03125 1.28125,-0.03125 0.34375,0 1,0 1.3125,0.03125 v -0.34375 c -0.609375,0 -0.90625,0 -0.90625,-0.359375 z m 0,0"
   id="path66" />
    </g>
    <g
   id="g67"
   transform="translate(42.965862,10.161)">
      <path
   d="m 4.578125,-2.765625 c 0.265625,0 0.28125,0 0.28125,-0.234375 0,-1.203125 -0.640625,-2.328125 -2.09375,-2.328125 -1.359375,0 -2.40625,1.234375 -2.40625,2.703125 0,1.578125 1.21875,2.75 2.546875,2.75 1.421875,0 1.953125,-1.296875 1.953125,-1.546875 0,-0.078125 -0.046875,-0.125 -0.125,-0.125 -0.09375,0 -0.125,0.0625 -0.140625,0.125 -0.3125,1 -1.109375,1.28125 -1.625,1.28125 -0.5,0 -1.703125,-0.34375 -1.703125,-2.40625 v -0.21875 z M 1.28125,-3 c 0.09375,-1.875 1.140625,-2.09375 1.484375,-2.09375 1.28125,0 1.34375,1.6875 1.359375,2.09375 z m 0,0"
   id="path67" />
    </g>
    <g
   id="g68"
   transform="translate(48.168762,10.161)">
      <path
   d="m 3.921875,-5.0625 c 0,-0.203125 0,-0.265625 -0.125,-0.265625 -0.09375,0 -0.3125,0.265625 -0.40625,0.375 -0.359375,-0.3125 -0.734375,-0.375 -1.125,-0.375 -1.4375,0 -1.875,0.78125 -1.875,1.4375 0,0.140625 0,0.5625 0.453125,0.96875 0.390625,0.34375 0.796875,0.421875 1.34375,0.53125 0.65625,0.125 0.8125,0.171875 1.109375,0.40625 0.21875,0.171875 0.375,0.4375 0.375,0.78125 C 3.671875,-0.6875 3.375,-0.125 2.3125,-0.125 1.53125,-0.125 0.953125,-0.578125 0.6875,-1.765625 0.640625,-1.984375 0.640625,-2 0.640625,-2.015625 0.609375,-2.0625 0.5625,-2.0625 0.53125,-2.0625 0.390625,-2.0625 0.390625,-2 0.390625,-1.78125 v 1.625 c 0,0.21875 0,0.28125 0.125,0.28125 0.0625,0 0.0625,-0.015625 0.265625,-0.265625 C 0.84375,-0.234375 0.84375,-0.25 1.03125,-0.4375 1.484375,0.125 2.125,0.125 2.328125,0.125 c 1.25,0 1.875,-0.703125 1.875,-1.640625 0,-0.640625 -0.390625,-1.03125 -0.5,-1.140625 -0.421875,-0.375 -0.75,-0.4375 -1.546875,-0.578125 -0.34375,-0.078125 -1.21875,-0.25 -1.21875,-0.96875 0,-0.359375 0.25,-0.90625 1.328125,-0.90625 1.296875,0 1.375,1.109375 1.390625,1.46875 0.015625,0.109375 0.09375,0.109375 0.140625,0.109375 0.125,0 0.125,-0.0625 0.125,-0.28125 z m 0,0"
   id="path68" />
    </g>
    <g
   id="g69"
   transform="translate(52.785862,10.161)">
      <path
   d="m 2.203125,-4.578125 c 0,-0.328125 -0.28125,-0.578125 -0.578125,-0.578125 -0.34375,0 -0.578125,0.28125 -0.578125,0.578125 C 1.046875,-4.21875 1.34375,-4 1.609375,-4 1.9375,-4 2.203125,-4.25 2.203125,-4.578125 Z m 0,4 c 0,-0.328125 -0.28125,-0.578125 -0.578125,-0.578125 -0.34375,0 -0.578125,0.265625 -0.578125,0.578125 C 1.046875,-0.234375 1.34375,0 1.609375,0 1.9375,0 2.203125,-0.25 2.203125,-0.578125 Z m 0,0"
   id="path69" />
    </g>
  </g>
</g><g
       inkscape:label=""
       transform="translate(73.905263,16.814816)"
       id="g87"><g
   fill="#000000"
   fill-opacity="1"
   id="g74"
   transform="matrix(0.352778,0,0,0.352778,-1.08894,-0.660797)">
    <g
   id="g72"
   transform="translate(1.993,10.295)">
      <path
   d="m 3.4375,-7.65625 c 0,-0.28125 0,-0.296875 -0.234375,-0.296875 C 2.921875,-7.625 2.3125,-7.1875 1.09375,-7.1875 v 0.34375 c 0.265625,0 0.859375,0 1.53125,-0.296875 v 6.21875 c 0,0.4375 -0.046875,0.578125 -1.09375,0.578125 h -0.375 V 0 c 0.328125,-0.03125 1.484375,-0.03125 1.875,-0.03125 0.40625,0 1.546875,0 1.875,0.03125 v -0.34375 h -0.375 c -1.046875,0 -1.09375,-0.140625 -1.09375,-0.578125 z m 0,0"
   id="path71" />
    </g>
    <g
   id="g73"
   transform="translate(7.8462658,10.295)">
      <path
   d="m 2.203125,-0.578125 c 0,-0.328125 -0.28125,-0.578125 -0.578125,-0.578125 -0.34375,0 -0.578125,0.265625 -0.578125,0.578125 C 1.046875,-0.234375 1.34375,0 1.609375,0 1.9375,0 2.203125,-0.25 2.203125,-0.578125 Z m 0,0"
   id="path72" />
    </g>
  </g>
  <g
   fill="#000000"
   fill-opacity="1"
   id="g16"
   transform="matrix(0.352778,0,0,0.352778,-1.08894,-0.660797)">
    <g
   id="g75"
   transform="translate(16.298592,10.295)">
      <path
   d="M 2.75,-7.9375 C 2.671875,-8.15625 2.65625,-8.15625 2.375,-8.15625 H 0.53125 v 0.34375 h 0.234375 c 0.859375,0 0.890625,0.109375 0.890625,0.5625 v 6.015625 c 0,0.328125 0,0.890625 -1.125,0.890625 V 0 c 0.3125,-0.03125 0.9375,-0.03125 1.28125,-0.03125 0.328125,0 0.953125,0 1.265625,0.03125 v -0.34375 c -1.125,0 -1.125,-0.5625 -1.125,-0.890625 V -7.75 L 4.84375,-0.234375 C 4.890625,-0.09375 4.921875,0 5.046875,0 5.15625,0 5.171875,-0.0625 5.25,-0.234375 L 8.15625,-7.8125 v 6.90625 c 0,0.4375 -0.03125,0.5625 -0.890625,0.5625 H 7.03125 V 0 c 0.265625,-0.03125 1.234375,-0.03125 1.578125,-0.03125 0.34375,0 1.296875,0 1.578125,0.03125 v -0.34375 h -0.25 c -0.859375,0 -0.890625,-0.125 -0.890625,-0.5625 V -7.25 c 0,-0.453125 0.03125,-0.5625 0.890625,-0.5625 h 0.25 V -8.15625 H 8.328125 c -0.265625,0 -0.265625,0 -0.375,0.234375 L 5.359375,-1.125 Z m 0,0"
   id="path74" />
    </g>
    <g
   id="g76"
   transform="translate(27.024797,10.295)">
      <path
   d="m 4.609375,-3.1875 c 0,-0.65625 0,-1.125 -0.515625,-1.59375 C 3.671875,-5.15625 3.125,-5.328125 2.609375,-5.328125 1.625,-5.328125 0.875,-4.6875 0.875,-3.90625 c 0,0.34375 0.21875,0.515625 0.5,0.515625 0.28125,0 0.484375,-0.203125 0.484375,-0.5 C 1.859375,-4.375 1.4375,-4.375 1.25,-4.375 c 0.28125,-0.5 0.859375,-0.71875 1.328125,-0.71875 0.546875,0 1.265625,0.453125 1.265625,1.53125 v 0.484375 c -2.40625,0.03125 -3.3125,1.03125 -3.3125,1.953125 0,0.953125 1.09375,1.25 1.828125,1.25 0.78125,0 1.328125,-0.484375 1.546875,-1.0625 0.046875,0.5625 0.421875,1 0.9375,1 0.25,0 0.9375,-0.171875 0.9375,-1.125 V -1.734375 H 5.515625 V -1.0625 c 0,0.6875 -0.28125,0.78125 -0.453125,0.78125 -0.453125,0 -0.453125,-0.640625 -0.453125,-0.8125 z m -0.765625,1.5 c 0,1.171875 -0.875,1.5625 -1.390625,1.5625 -0.59375,0 -1.078125,-0.421875 -1.078125,-1 0,-1.578125 2.03125,-1.71875 2.46875,-1.75 z m 0,0"
   id="path75" />
    </g>
  </g>
  <g
   fill="#000000"
   fill-opacity="1"
   id="g19"
   transform="matrix(0.352778,0,0,0.352778,-1.08894,-0.660797)">
    <g
   id="g77"
   transform="translate(33.523643,10.295)">
      <path
   d="m 2.421875,-7.359375 c 0,-0.359375 -0.28125,-0.59375 -0.5625,-0.59375 -0.34375,0 -0.59375,0.265625 -0.59375,0.59375 0,0.3125 0.265625,0.5625 0.578125,0.5625 0.359375,0 0.578125,-0.28125 0.578125,-0.5625 z m -1.75,2.21875 v 0.34375 c 0.890625,0 1,0.09375 1,0.671875 v 4.78125 c 0,0.65625 -0.125,1.546875 -0.828125,1.546875 -0.015625,0 -0.390625,0 -0.671875,-0.171875 0.3125,-0.0625 0.40625,-0.28125 0.40625,-0.484375 0,-0.28125 -0.203125,-0.5 -0.484375,-0.5 -0.296875,0 -0.5,0.21875 -0.5,0.5 0,0.578125 0.640625,0.890625 1.265625,0.890625 0.859375,0 1.5625,-0.734375 1.5625,-1.828125 v -5.875 z m 0,0"
   id="path76" />
    </g>
    <g
   id="g78"
   transform="translate(37.100639,10.295)">
      <path
   d="m 5.484375,-2.5625 c 0,-1.53125 -1.171875,-2.765625 -2.5625,-2.765625 -1.421875,0 -2.5625,1.265625 -2.5625,2.765625 0,1.53125 1.1875,2.6875 2.5625,2.6875 1.40625,0 2.5625,-1.171875 2.5625,-2.6875 z m -2.5625,2.421875 c -0.4375,0 -0.96875,-0.1875 -1.3125,-0.78125 -0.328125,-0.53125 -0.34375,-1.234375 -0.34375,-1.75 0,-0.453125 0,-1.171875 0.375,-1.71875 C 1.96875,-4.90625 2.5,-5.09375 2.921875,-5.09375 c 0.453125,0 0.96875,0.21875 1.28125,0.6875 0.375,0.546875 0.375,1.296875 0.375,1.734375 0,0.421875 0,1.171875 -0.3125,1.734375 C 3.9375,-0.375 3.375,-0.140625 2.921875,-0.140625 Z m 0,0"
   id="path77" />
    </g>
    <g
   id="use19"
   transform="translate(42.953907,10.295)">
      <path
   d="m 2,-2.78125 c 0,-1.15625 0.46875,-2.25 1.390625,-2.25 0.09375,0 0.125,0 0.171875,0.015625 -0.09375,0.046875 -0.28125,0.109375 -0.28125,0.4375 0,0.34375 0.265625,0.484375 0.453125,0.484375 0.25,0 0.484375,-0.15625 0.484375,-0.484375 0,-0.359375 -0.328125,-0.6875 -0.84375,-0.6875 -1.015625,0 -1.359375,1.09375 -1.421875,1.328125 H 1.9375 v -1.328125 l -1.609375,0.125 v 0.34375 c 0.8125,0 0.921875,0.09375 0.921875,0.671875 v 3.234375 c 0,0.546875 -0.140625,0.546875 -0.921875,0.546875 V 0 c 0.34375,-0.03125 1,-0.03125 1.359375,-0.03125 0.328125,0 1.171875,0 1.4375,0.03125 V -0.34375 H 2.890625 C 2.015625,-0.34375 2,-0.484375 2,-0.90625 Z m 0,0"
   id="path78" />
    </g>
  </g>
  <g
   fill="#000000"
   fill-opacity="1"
   id="g86"
   transform="matrix(0.352778,0,0,0.352778,-1.08894,-0.660797)">
    <g
   id="use20"
   transform="translate(51.415798,10.295)">
      <path
   d="m 8.453125,-4.046875 c 0,-2.484375 -1.8125,-4.375 -3.90625,-4.375 -2.125,0 -3.90625,1.921875 -3.90625,4.375 0,2.421875 1.8125,4.296875 3.90625,4.296875 2.140625,0 3.90625,-1.90625 3.90625,-4.296875 z M 4.546875,-0.03125 C 3.328125,-0.03125 1.75,-1.171875 1.75,-4.234375 c 0,-2.921875 1.671875,-3.921875 2.796875,-3.921875 1.171875,0 2.796875,1.03125 2.796875,3.921875 0,3.109375 -1.625,4.203125 -2.796875,4.203125 z m 0,0"
   id="path79" />
    </g>
    <g
   id="use21"
   transform="translate(60.520878,10.295)">
      <path
   d="m 3.640625,-5.140625 v 0.34375 c 0.8125,0 0.90625,0.09375 0.90625,0.671875 v 2.140625 C 4.546875,-0.96875 4,-0.125 3.109375,-0.125 2.125,-0.125 2.0625,-0.6875 2.0625,-1.3125 v -3.953125 l -1.6875,0.125 v 0.34375 c 0.921875,0 0.921875,0.046875 0.921875,1.109375 v 1.78125 c 0,0.75 0,1.171875 0.359375,1.578125 C 1.9375,-0.03125 2.421875,0.125 3.03125,0.125 c 0.203125,0 0.59375,0 1,-0.359375 C 4.375,-0.5 4.5625,-0.953125 4.5625,-0.953125 V 0.125 L 6.234375,0 v -0.34375 c -0.8125,0 -0.921875,-0.09375 -0.921875,-0.671875 v -4.25 z m 0,0"
   id="path80" />
    </g>
    <g
   id="use22"
   transform="translate(67.024506,10.295)">
      <path
   d="M 2.015625,-4.8125 H 3.6875 V -5.15625 H 2.015625 v -2.1875 H 1.75 C 1.734375,-6.234375 1.296875,-5.078125 0.21875,-5.046875 V -4.8125 h 1.015625 v 3.328125 c 0,1.328125 0.875,1.609375 1.515625,1.609375 0.75,0 1.140625,-0.75 1.140625,-1.609375 V -2.15625 h -0.25 V -1.5 c 0,0.859375 -0.359375,1.359375 -0.8125,1.359375 -0.8125,0 -0.8125,-1.109375 -0.8125,-1.3125 z m 0,0"
   id="path81" />
    </g>
    <g
   id="use23"
   transform="translate(71.577049,10.295)">
      <path
   d="M 2,-8.296875 0.328125,-8.15625 v 0.34375 c 0.8125,0 0.921875,0.078125 0.921875,0.671875 V 0 H 1.5 C 1.546875,-0.09375 1.890625,-0.6875 1.9375,-0.78125 2.21875,-0.328125 2.71875,0.125 3.484375,0.125 c 1.375,0 2.59375,-1.171875 2.59375,-2.703125 0,-1.515625 -1.125,-2.6875 -2.453125,-2.6875 -0.65625,0 -1.21875,0.296875 -1.625,0.796875 z m 0.015625,4.46875 c 0,-0.21875 0,-0.234375 0.140625,-0.421875 0.28125,-0.4375 0.8125,-0.78125 1.390625,-0.78125 0.359375,0 1.609375,0.140625 1.609375,2.4375 0,0.796875 -0.109375,1.296875 -0.40625,1.734375 -0.234375,0.375 -0.703125,0.734375 -1.3125,0.734375 -0.640625,0 -1.0625,-0.40625 -1.265625,-0.734375 -0.15625,-0.25 -0.15625,-0.296875 -0.15625,-0.5 z m 0,0"
   id="path82" />
    </g>
    <g
   id="use24"
   transform="translate(78.080673,10.295)">
      <path
   d="m 2,-2.78125 c 0,-1.15625 0.46875,-2.25 1.390625,-2.25 0.09375,0 0.125,0 0.171875,0.015625 -0.09375,0.046875 -0.28125,0.109375 -0.28125,0.4375 0,0.34375 0.265625,0.484375 0.453125,0.484375 0.25,0 0.484375,-0.15625 0.484375,-0.484375 0,-0.359375 -0.328125,-0.6875 -0.84375,-0.6875 -1.015625,0 -1.359375,1.09375 -1.421875,1.328125 H 1.9375 v -1.328125 l -1.609375,0.125 v 0.34375 c 0.8125,0 0.921875,0.09375 0.921875,0.671875 v 3.234375 c 0,0.546875 -0.140625,0.546875 -0.921875,0.546875 V 0 c 0.34375,-0.03125 1,-0.03125 1.359375,-0.03125 0.328125,0 1.171875,0 1.4375,0.03125 V -0.34375 H 2.890625 C 2.015625,-0.34375 2,-0.484375 2,-0.90625 Z m 0,0"
   id="path83" />
    </g>
    <g
   id="use25"
   transform="translate(82.633217,10.295)">
      <path
   d="m 4.578125,-2.765625 c 0.265625,0 0.28125,0 0.28125,-0.234375 0,-1.203125 -0.640625,-2.328125 -2.09375,-2.328125 -1.359375,0 -2.40625,1.234375 -2.40625,2.703125 0,1.578125 1.21875,2.75 2.546875,2.75 1.421875,0 1.953125,-1.296875 1.953125,-1.546875 0,-0.078125 -0.046875,-0.125 -0.125,-0.125 -0.09375,0 -0.125,0.0625 -0.140625,0.125 -0.3125,1 -1.109375,1.28125 -1.625,1.28125 -0.5,0 -1.703125,-0.34375 -1.703125,-2.40625 v -0.21875 z M 1.28125,-3 c 0.09375,-1.875 1.140625,-2.09375 1.484375,-2.09375 1.28125,0 1.34375,1.6875 1.359375,2.09375 z m 0,0"
   id="path84" />
    </g>
    <g
   id="use26"
   transform="translate(87.836121,10.295)">
      <path
   d="m 4.609375,-3.1875 c 0,-0.65625 0,-1.125 -0.515625,-1.59375 C 3.671875,-5.15625 3.125,-5.328125 2.609375,-5.328125 1.625,-5.328125 0.875,-4.6875 0.875,-3.90625 c 0,0.34375 0.21875,0.515625 0.5,0.515625 0.28125,0 0.484375,-0.203125 0.484375,-0.5 C 1.859375,-4.375 1.4375,-4.375 1.25,-4.375 c 0.28125,-0.5 0.859375,-0.71875 1.328125,-0.71875 0.546875,0 1.265625,0.453125 1.265625,1.53125 v 0.484375 c -2.40625,0.03125 -3.3125,1.03125 -3.3125,1.953125 0,0.953125 1.09375,1.25 1.828125,1.25 0.78125,0 1.328125,-0.484375 1.546875,-1.0625 0.046875,0.5625 0.421875,1 0.9375,1 0.25,0 0.9375,-0.171875 0.9375,-1.125 V -1.734375 H 5.515625 V -1.0625 c 0,0.6875 -0.28125,0.78125 -0.453125,0.78125 -0.453125,0 -0.453125,-0.640625 -0.453125,-0.8125 z m -0.765625,1.5 c 0,1.171875 -0.875,1.5625 -1.390625,1.5625 -0.59375,0 -1.078125,-0.421875 -1.078125,-1 0,-1.578125 2.03125,-1.71875 2.46875,-1.75 z m 0,0"
   id="path85" />
    </g>
    <g
   id="use27"
   transform="translate(93.689384,10.295)">
      <path
   d="m 3.34375,-3.171875 c 0,0 -0.078125,-0.109375 -0.078125,-0.109375 0,-0.046875 0.75,-0.6875 0.84375,-0.78125 C 4.9375,-4.78125 5.46875,-4.796875 5.71875,-4.8125 V -5.15625 C 5.46875,-5.125 5.15625,-5.125 4.8125,-5.125 c -0.3125,0 -0.921875,0 -1.203125,-0.03125 v 0.34375 c 0.203125,0.015625 0.34375,0.125 0.34375,0.3125 0,0.25 -0.234375,0.453125 -0.25,0.453125 L 2,-2.53125 V -8.296875 L 0.328125,-8.15625 v 0.34375 c 0.8125,0 0.921875,0.078125 0.921875,0.671875 v 6.25 c 0,0.546875 -0.140625,0.546875 -0.921875,0.546875 V 0 c 0.34375,-0.03125 0.921875,-0.03125 1.28125,-0.03125 0.34375,0 0.921875,0 1.265625,0.03125 v -0.34375 c -0.765625,0 -0.921875,0 -0.921875,-0.546875 V -2.15625 L 2.71875,-2.828125 3.875,-1.171875 c 0.171875,0.25 0.265625,0.390625 0.265625,0.546875 0,0.21875 -0.171875,0.28125 -0.421875,0.28125 V 0 c 0.296875,-0.03125 0.890625,-0.03125 1.203125,-0.03125 0.515625,0 0.546875,0 1.046875,0.03125 v -0.34375 c -0.3125,0 -0.6875,0 -1.015625,-0.5 z m 0,0"
   id="path86" />
    </g>
  </g>
</g><g
       inkscape:label=""
       transform="translate(80.647494,39.321279)"
       id="g101"><g
   fill="#000000"
   fill-opacity="1"
   id="g90"
   transform="matrix(0.352778,0,0,0.352778,-0.907036,-0.707584)">
    <g
   id="g88"
   transform="translate(1.993,10.162)">
      <path
   d="M 5.265625,-2.015625 H 5 c -0.046875,0.203125 -0.140625,0.875 -0.25,1.0625 C 4.65625,-0.84375 3.984375,-0.84375 3.625,-0.84375 H 1.40625 c 0.328125,-0.28125 1.0625,-1.046875 1.359375,-1.328125 1.828125,-1.671875 2.5,-2.296875 2.5,-3.484375 0,-1.375 -1.09375,-2.296875 -2.484375,-2.296875 -1.375,0 -2.203125,1.1875 -2.203125,2.21875 0,0.609375 0.53125,0.609375 0.5625,0.609375 0.265625,0 0.5625,-0.1875 0.5625,-0.5625 0,-0.34375 -0.21875,-0.5625 -0.5625,-0.5625 -0.09375,0 -0.125,0 -0.15625,0.015625 0.21875,-0.8125 0.875,-1.375 1.640625,-1.375 1.015625,0 1.640625,0.859375 1.640625,1.953125 C 4.265625,-4.640625 3.6875,-3.75 3,-2.984375 L 0.578125,-0.28125 V 0 h 4.375 z m 0,0"
   id="path87" />
    </g>
    <g
   id="g89"
   transform="translate(7.8462658,10.162)">
      <path
   d="m 2.203125,-0.578125 c 0,-0.328125 -0.28125,-0.578125 -0.578125,-0.578125 -0.34375,0 -0.578125,0.265625 -0.578125,0.578125 C 1.046875,-0.234375 1.34375,0 1.609375,0 1.9375,0 2.203125,-0.25 2.203125,-0.578125 Z m 0,0"
   id="path88" />
    </g>
  </g>
  <g
   fill="#000000"
   fill-opacity="1"
   id="g95"
   transform="matrix(0.352778,0,0,0.352778,-0.907036,-0.707584)">
    <g
   id="g91"
   transform="translate(16.298592,10.162)">
      <path
   d="m 5.046875,-4.0625 c 1.1875,-0.28125 2.09375,-1.03125 2.09375,-1.953125 0,-1.15625 -1.34375,-2.140625 -3.0625,-2.140625 H 0.5 v 0.34375 h 0.234375 c 0.875,0 0.90625,0.109375 0.90625,0.5625 v 6.34375 c 0,0.4375 -0.03125,0.5625 -0.90625,0.5625 H 0.5 V 0 c 0.28125,-0.03125 1.25,-0.03125 1.609375,-0.03125 0.34375,0 1.328125,0 1.609375,0.03125 V -0.34375 H 3.484375 c -0.859375,0 -0.90625,-0.125 -0.90625,-0.5625 v -3.0625 H 3.96875 c 0.46875,0 0.90625,0.125 1.234375,0.46875 0.40625,0.453125 0.40625,0.703125 0.40625,1.53125 0,0.9375 0,1.25 0.515625,1.765625 C 6.3125,-0.03125 6.8125,0.25 7.484375,0.25 c 0.9375,0 1.09375,-1.03125 1.09375,-1.296875 0,-0.0625 0,-0.171875 -0.140625,-0.171875 -0.125,0 -0.125,0.078125 -0.125,0.1875 C 8.25,-0.3125 7.90625,0.015625 7.515625,0.015625 6.96875,0.015625 6.84375,-0.546875 6.75,-1.1875 6.734375,-1.265625 6.671875,-1.78125 6.640625,-2.078125 6.546875,-2.671875 6.5,-3.0625 6.140625,-3.4375 c -0.125,-0.125 -0.4375,-0.453125 -1.09375,-0.625 z m -1.125,-0.140625 H 2.578125 V -7.34375 c 0,-0.265625 0,-0.40625 0.25,-0.46875 0.109375,0 0.46875,0 0.703125,0 0.96875,0 2.5,0 2.5,1.796875 0,1.046875 -0.5625,1.8125 -2.109375,1.8125 z m 0,0"
   id="path90" />
    </g>
    <g
   id="g92"
   transform="translate(24.913509,10.162)">
      <path
   d="m 4.578125,-2.765625 c 0.265625,0 0.28125,0 0.28125,-0.234375 0,-1.203125 -0.640625,-2.328125 -2.09375,-2.328125 -1.359375,0 -2.40625,1.234375 -2.40625,2.703125 0,1.578125 1.21875,2.75 2.546875,2.75 1.421875,0 1.953125,-1.296875 1.953125,-1.546875 0,-0.078125 -0.046875,-0.125 -0.125,-0.125 -0.09375,0 -0.125,0.0625 -0.140625,0.125 -0.3125,1 -1.109375,1.28125 -1.625,1.28125 -0.5,0 -1.703125,-0.34375 -1.703125,-2.40625 v -0.21875 z M 1.28125,-3 c 0.09375,-1.875 1.140625,-2.09375 1.484375,-2.09375 1.28125,0 1.34375,1.6875 1.359375,2.09375 z m 0,0"
   id="path91" />
    </g>
    <g
   id="g93"
   transform="translate(30.116411,10.162)">
      <path
   d="m 4.328125,-4.421875 c -0.140625,0 -0.59375,0 -0.59375,0.484375 0,0.296875 0.203125,0.5 0.5,0.5 0.265625,0 0.5,-0.171875 0.5,-0.515625 0,-0.796875 -0.84375,-1.375 -1.8125,-1.375 -1.390625,0 -2.5,1.234375 -2.5,2.75 0,1.53125 1.140625,2.703125 2.5,2.703125 1.578125,0 1.9375,-1.4375 1.9375,-1.546875 0,-0.109375 -0.09375,-0.109375 -0.125,-0.109375 -0.109375,0 -0.125,0.03125 -0.15625,0.1875 C 4.3125,-0.5 3.671875,-0.140625 3.03125,-0.140625 c -0.734375,0 -1.703125,-0.640625 -1.703125,-2.453125 0,-1.984375 1.015625,-2.46875 1.609375,-2.46875 0.453125,0 1.109375,0.171875 1.390625,0.640625 z m 0,0"
   id="path92" />
    </g>
    <g
   id="g94"
   transform="translate(35.319317,10.162)">
      <path
   d="m 5.484375,-2.5625 c 0,-1.53125 -1.171875,-2.765625 -2.5625,-2.765625 -1.421875,0 -2.5625,1.265625 -2.5625,2.765625 0,1.53125 1.1875,2.6875 2.5625,2.6875 1.40625,0 2.5625,-1.171875 2.5625,-2.6875 z m -2.5625,2.421875 c -0.4375,0 -0.96875,-0.1875 -1.3125,-0.78125 -0.328125,-0.53125 -0.34375,-1.234375 -0.34375,-1.75 0,-0.453125 0,-1.171875 0.375,-1.71875 C 1.96875,-4.90625 2.5,-5.09375 2.921875,-5.09375 c 0.453125,0 0.96875,0.21875 1.28125,0.6875 0.375,0.546875 0.375,1.296875 0.375,1.734375 0,0.421875 0,1.171875 -0.3125,1.734375 C 3.9375,-0.375 3.375,-0.140625 2.921875,-0.140625 Z m 0,0"
   id="path93" />
    </g>
  </g>
  <g
   fill="#000000"
   fill-opacity="1"
   id="g15"
   transform="matrix(0.352778,0,0,0.352778,-0.907036,-0.707584)">
    <g
   id="g96"
   transform="translate(40.849792,10.162)">
      <path
   d="M 4.875,-4.015625 C 4.984375,-4.28125 5.1875,-4.796875 5.953125,-4.8125 V -5.15625 C 5.609375,-5.125 5.4375,-5.125 5.0625,-5.125 c -0.25,0 -0.421875,0 -0.96875,-0.03125 v 0.34375 c 0.5,0.03125 0.5625,0.390625 0.5625,0.515625 0,0.109375 -0.03125,0.171875 -0.09375,0.3125 l -1.21875,3.09375 -1.328125,-3.375 C 1.953125,-4.4375 1.9375,-4.4375 1.9375,-4.5 c 0,-0.3125 0.453125,-0.3125 0.671875,-0.3125 V -5.15625 C 2.3125,-5.125 1.6875,-5.125 1.359375,-5.125 c -0.390625,0 -0.421875,0 -1.140625,-0.03125 v 0.34375 c 0.671875,0 0.78125,0.0625 0.921875,0.421875 l 1.71875,4.28125 C 2.921875,0.0625 2.9375,0.125 3.078125,0.125 c 0.09375,0 0.15625,-0.03125 0.25,-0.234375 z m 0,0"
   id="path95" />
    </g>
  </g>
  <g
   fill="#000000"
   fill-opacity="1"
   id="g100"
   transform="matrix(0.352778,0,0,0.352778,-0.907036,-0.707584)">
    <g
   id="g97"
   transform="translate(46.705448,10.162)">
      <path
   d="m 4.578125,-2.765625 c 0.265625,0 0.28125,0 0.28125,-0.234375 0,-1.203125 -0.640625,-2.328125 -2.09375,-2.328125 -1.359375,0 -2.40625,1.234375 -2.40625,2.703125 0,1.578125 1.21875,2.75 2.546875,2.75 1.421875,0 1.953125,-1.296875 1.953125,-1.546875 0,-0.078125 -0.046875,-0.125 -0.125,-0.125 -0.09375,0 -0.125,0.0625 -0.140625,0.125 -0.3125,1 -1.109375,1.28125 -1.625,1.28125 -0.5,0 -1.703125,-0.34375 -1.703125,-2.40625 v -0.21875 z M 1.28125,-3 c 0.09375,-1.875 1.140625,-2.09375 1.484375,-2.09375 1.28125,0 1.34375,1.6875 1.359375,2.09375 z m 0,0"
   id="path96" />
    </g>
    <g
   id="g98"
   transform="translate(51.908352,10.162)">
      <path
   d="m 2,-2.78125 c 0,-1.15625 0.46875,-2.25 1.390625,-2.25 0.09375,0 0.125,0 0.171875,0.015625 -0.09375,0.046875 -0.28125,0.109375 -0.28125,0.4375 0,0.34375 0.265625,0.484375 0.453125,0.484375 0.25,0 0.484375,-0.15625 0.484375,-0.484375 0,-0.359375 -0.328125,-0.6875 -0.84375,-0.6875 -1.015625,0 -1.359375,1.09375 -1.421875,1.328125 H 1.9375 v -1.328125 l -1.609375,0.125 v 0.34375 c 0.8125,0 0.921875,0.09375 0.921875,0.671875 v 3.234375 c 0,0.546875 -0.140625,0.546875 -0.921875,0.546875 V 0 c 0.34375,-0.03125 1,-0.03125 1.359375,-0.03125 0.328125,0 1.171875,0 1.4375,0.03125 V -0.34375 H 2.890625 C 2.015625,-0.34375 2,-0.484375 2,-0.90625 Z m 0,0"
   id="path97" />
    </g>
    <g
   id="g99"
   transform="translate(56.460892,10.162)">
      <path
   d="m 4.84375,-4 c 0.3125,-0.796875 0.875,-0.8125 1.109375,-0.8125 V -5.15625 C 5.609375,-5.125 5.4375,-5.125 5.0625,-5.125 c -0.28125,0 -0.3125,0 -0.96875,-0.03125 V -4.8125 C 4.53125,-4.78125 4.640625,-4.5 4.640625,-4.296875 4.640625,-4.1875 4.609375,-4.125 4.5625,-4 L 3.34375,-0.984375 2.015625,-4.25 c -0.0625,-0.15625 -0.0625,-0.234375 -0.0625,-0.25 0,-0.3125 0.40625,-0.3125 0.65625,-0.3125 V -5.15625 C 2.296875,-5.125 1.703125,-5.125 1.375,-5.125 c -0.453125,0 -0.484375,0 -1.15625,-0.03125 v 0.34375 c 0.6875,0 0.78125,0.0625 0.9375,0.4375 L 2.9375,0 C 2.421875,1.265625 2.421875,1.296875 2.359375,1.390625 2.15625,1.75 1.84375,2.203125 1.296875,2.203125 c -0.359375,0 -0.59375,-0.21875 -0.59375,-0.21875 0,0 0.421875,-0.046875 0.421875,-0.46875 0,-0.28125 -0.234375,-0.4375 -0.4375,-0.4375 -0.203125,0 -0.453125,0.109375 -0.453125,0.46875 0,0.453125 0.4375,0.890625 1.0625,0.890625 0.671875,0 1.171875,-0.578125 1.46875,-1.34375 z m 0,0"
   id="path98" />
    </g>
  </g>
</g><g
       style="fill:#55d400"
       id="g10-2-9-6-0"
       transform="matrix(0.02846689,0,0,0.02846689,53.681222,32.858339)"><path
         d="m -10.9,4.9 c 11.3,0 20.5,9.2 20.5,20.5 0,11.3 -9.2,20.5 -20.5,20.5 -11.3,0 -20.5,-9.2 -20.5,-20.5 0,-11.3 9.2,-20.5 20.5,-20.5 z m 25.8,46.3 h -51.2 c -14.2,0 -25.6,11.4 -25.6,25.6 v 62.6 c 0,4.9 3.9,9 9,9 5.1,0 9,-3.9 9,-9 V 81.9 c 0,-1.4 1.2,-2.6 2.6,-2.6 1.4,0 2.6,1.2 2.6,2.6 v 155.2 c 0,7.7 5.7,14 12.8,14 7.1,0 12.8,-6.3 12.8,-14 v -88.5 c 0,-1.4 1.2,-2.6 2.6,-2.6 1.4,0 2.6,1.2 2.6,2.6 v 88.5 c 0,7.7 5.7,14 12.8,14 7.1,0 12.8,-6.3 12.8,-14 V 81.9 c 0,-1.4 1.2,-2.6 2.6,-2.6 1.4,0 2.6,1.2 2.6,2.6 v 57.6 c 0,4.9 3.9,9 9,9 5.1,0 9,-3.9 9,-9 V 76.8 C 40.5,62.6 28.8,51.2 14.9,51.2 Z"
         id="path1-7-9-3-1-2"
         style="fill:#55d400" /></g><g
       style="fill:#55d400"
       id="g10-2-9-6-0-6"
       transform="matrix(0.02846689,0,0,0.02846689,57.62315,32.858339)"><path
         d="m -10.9,4.9 c 11.3,0 20.5,9.2 20.5,20.5 0,11.3 -9.2,20.5 -20.5,20.5 -11.3,0 -20.5,-9.2 -20.5,-20.5 0,-11.3 9.2,-20.5 20.5,-20.5 z m 25.8,46.3 h -51.2 c -14.2,0 -25.6,11.4 -25.6,25.6 v 62.6 c 0,4.9 3.9,9 9,9 5.1,0 9,-3.9 9,-9 V 81.9 c 0,-1.4 1.2,-2.6 2.6,-2.6 1.4,0 2.6,1.2 2.6,2.6 v 155.2 c 0,7.7 5.7,14 12.8,14 7.1,0 12.8,-6.3 12.8,-14 v -88.5 c 0,-1.4 1.2,-2.6 2.6,-2.6 1.4,0 2.6,1.2 2.6,2.6 v 88.5 c 0,7.7 5.7,14 12.8,14 7.1,0 12.8,-6.3 12.8,-14 V 81.9 c 0,-1.4 1.2,-2.6 2.6,-2.6 1.4,0 2.6,1.2 2.6,2.6 v 57.6 c 0,4.9 3.9,9 9,9 5.1,0 9,-3.9 9,-9 V 76.8 C 40.5,62.6 28.8,51.2 14.9,51.2 Z"
         id="path1-7-9-3-1-2-1"
         style="fill:#55d400" /></g><g
       style="fill:#55d400"
       id="g10-2-9-6-0-6-0"
       transform="matrix(0.02846689,0,0,0.02846689,49.739295,32.858339)"><path
         d="m -10.9,4.9 c 11.3,0 20.5,9.2 20.5,20.5 0,11.3 -9.2,20.5 -20.5,20.5 -11.3,0 -20.5,-9.2 -20.5,-20.5 0,-11.3 9.2,-20.5 20.5,-20.5 z m 25.8,46.3 h -51.2 c -14.2,0 -25.6,11.4 -25.6,25.6 v 62.6 c 0,4.9 3.9,9 9,9 5.1,0 9,-3.9 9,-9 V 81.9 c 0,-1.4 1.2,-2.6 2.6,-2.6 1.4,0 2.6,1.2 2.6,2.6 v 155.2 c 0,7.7 5.7,14 12.8,14 7.1,0 12.8,-6.3 12.8,-14 v -88.5 c 0,-1.4 1.2,-2.6 2.6,-2.6 1.4,0 2.6,1.2 2.6,2.6 v 88.5 c 0,7.7 5.7,14 12.8,14 7.1,0 12.8,-6.3 12.8,-14 V 81.9 c 0,-1.4 1.2,-2.6 2.6,-2.6 1.4,0 2.6,1.2 2.6,2.6 v 57.6 c 0,4.9 3.9,9 9,9 5.1,0 9,-3.9 9,-9 V 76.8 C 40.5,62.6 28.8,51.2 14.9,51.2 Z"
         id="path1-7-9-3-1-2-1-3"
         style="fill:#55d400" /></g><g
       style="fill:#55d400"
       id="g10-2-9-6-0-6-0-5"
       transform="matrix(0.02846689,0,0,0.02846689,45.797367,32.858339)"><path
         d="m -10.9,4.9 c 11.3,0 20.5,9.2 20.5,20.5 0,11.3 -9.2,20.5 -20.5,20.5 -11.3,0 -20.5,-9.2 -20.5,-20.5 0,-11.3 9.2,-20.5 20.5,-20.5 z m 25.8,46.3 h -51.2 c -14.2,0 -25.6,11.4 -25.6,25.6 v 62.6 c 0,4.9 3.9,9 9,9 5.1,0 9,-3.9 9,-9 V 81.9 c 0,-1.4 1.2,-2.6 2.6,-2.6 1.4,0 2.6,1.2 2.6,2.6 v 155.2 c 0,7.7 5.7,14 12.8,14 7.1,0 12.8,-6.3 12.8,-14 v -88.5 c 0,-1.4 1.2,-2.6 2.6,-2.6 1.4,0 2.6,1.2 2.6,2.6 v 88.5 c 0,7.7 5.7,14 12.8,14 7.1,0 12.8,-6.3 12.8,-14 V 81.9 c 0,-1.4 1.2,-2.6 2.6,-2.6 1.4,0 2.6,1.2 2.6,2.6 v 57.6 c 0,4.9 3.9,9 9,9 5.1,0 9,-3.9 9,-9 V 76.8 C 40.5,62.6 28.8,51.2 14.9,51.2 Z"
         id="path1-7-9-3-1-2-1-3-4"
         style="fill:#55d400" /></g><g
       style="fill:#55d400"
       id="g10-2-9-6-0-6-0-5-5"
       transform="matrix(0.02846689,0,0,0.02846689,61.565077,32.858339)"><path
         d="m -10.9,4.9 c 11.3,0 20.5,9.2 20.5,20.5 0,11.3 -9.2,20.5 -20.5,20.5 -11.3,0 -20.5,-9.2 -20.5,-20.5 0,-11.3 9.2,-20.5 20.5,-20.5 z m 25.8,46.3 h -51.2 c -14.2,0 -25.6,11.4 -25.6,25.6 v 62.6 c 0,4.9 3.9,9 9,9 5.1,0 9,-3.9 9,-9 V 81.9 c 0,-1.4 1.2,-2.6 2.6,-2.6 1.4,0 2.6,1.2 2.6,2.6 v 155.2 c 0,7.7 5.7,14 12.8,14 7.1,0 12.8,-6.3 12.8,-14 v -88.5 c 0,-1.4 1.2,-2.6 2.6,-2.6 1.4,0 2.6,1.2 2.6,2.6 v 88.5 c 0,7.7 5.7,14 12.8,14 7.1,0 12.8,-6.3 12.8,-14 V 81.9 c 0,-1.4 1.2,-2.6 2.6,-2.6 1.4,0 2.6,1.2 2.6,2.6 v 57.6 c 0,4.9 3.9,9 9,9 5.1,0 9,-3.9 9,-9 V 76.8 C 40.5,62.6 28.8,51.2 14.9,51.2 Z"
         id="path1-7-9-3-1-2-1-3-4-4"
         style="fill:#55d400" /></g><g
       style="fill:#55d400"
       id="g10-2-9-6-0-0"
       transform="matrix(0.02846689,0,0,0.02846689,53.639166,40.682375)"><path
         d="m -10.9,4.9 c 11.3,0 20.5,9.2 20.5,20.5 0,11.3 -9.2,20.5 -20.5,20.5 -11.3,0 -20.5,-9.2 -20.5,-20.5 0,-11.3 9.2,-20.5 20.5,-20.5 z m 25.8,46.3 h -51.2 c -14.2,0 -25.6,11.4 -25.6,25.6 v 62.6 c 0,4.9 3.9,9 9,9 5.1,0 9,-3.9 9,-9 V 81.9 c 0,-1.4 1.2,-2.6 2.6,-2.6 1.4,0 2.6,1.2 2.6,2.6 v 155.2 c 0,7.7 5.7,14 12.8,14 7.1,0 12.8,-6.3 12.8,-14 v -88.5 c 0,-1.4 1.2,-2.6 2.6,-2.6 1.4,0 2.6,1.2 2.6,2.6 v 88.5 c 0,7.7 5.7,14 12.8,14 7.1,0 12.8,-6.3 12.8,-14 V 81.9 c 0,-1.4 1.2,-2.6 2.6,-2.6 1.4,0 2.6,1.2 2.6,2.6 v 57.6 c 0,4.9 3.9,9 9,9 5.1,0 9,-3.9 9,-9 V 76.8 C 40.5,62.6 28.8,51.2 14.9,51.2 Z"
         id="path1-7-9-3-1-2-7"
         style="fill:#55d400" /></g><g
       style="fill:#55d400"
       id="g10-2-9-6-0-6-8"
       transform="matrix(0.02846689,0,0,0.02846689,57.581094,40.682375)"><path
         d="m -10.9,4.9 c 11.3,0 20.5,9.2 20.5,20.5 0,11.3 -9.2,20.5 -20.5,20.5 -11.3,0 -20.5,-9.2 -20.5,-20.5 0,-11.3 9.2,-20.5 20.5,-20.5 z m 25.8,46.3 h -51.2 c -14.2,0 -25.6,11.4 -25.6,25.6 v 62.6 c 0,4.9 3.9,9 9,9 5.1,0 9,-3.9 9,-9 V 81.9 c 0,-1.4 1.2,-2.6 2.6,-2.6 1.4,0 2.6,1.2 2.6,2.6 v 155.2 c 0,7.7 5.7,14 12.8,14 7.1,0 12.8,-6.3 12.8,-14 v -88.5 c 0,-1.4 1.2,-2.6 2.6,-2.6 1.4,0 2.6,1.2 2.6,2.6 v 88.5 c 0,7.7 5.7,14 12.8,14 7.1,0 12.8,-6.3 12.8,-14 V 81.9 c 0,-1.4 1.2,-2.6 2.6,-2.6 1.4,0 2.6,1.2 2.6,2.6 v 57.6 c 0,4.9 3.9,9 9,9 5.1,0 9,-3.9 9,-9 V 76.8 C 40.5,62.6 28.8,51.2 14.9,51.2 Z"
         id="path1-7-9-3-1-2-1-6"
         style="fill:#55d400" /></g><g
       style="fill:#55d400"
       id="g10-2-9-6-0-6-0-8"
       transform="matrix(0.02846689,0,0,0.02846689,49.697239,40.682375)"><path
         d="m -10.9,4.9 c 11.3,0 20.5,9.2 20.5,20.5 0,11.3 -9.2,20.5 -20.5,20.5 -11.3,0 -20.5,-9.2 -20.5,-20.5 0,-11.3 9.2,-20.5 20.5,-20.5 z m 25.8,46.3 h -51.2 c -14.2,0 -25.6,11.4 -25.6,25.6 v 62.6 c 0,4.9 3.9,9 9,9 5.1,0 9,-3.9 9,-9 V 81.9 c 0,-1.4 1.2,-2.6 2.6,-2.6 1.4,0 2.6,1.2 2.6,2.6 v 155.2 c 0,7.7 5.7,14 12.8,14 7.1,0 12.8,-6.3 12.8,-14 v -88.5 c 0,-1.4 1.2,-2.6 2.6,-2.6 1.4,0 2.6,1.2 2.6,2.6 v 88.5 c 0,7.7 5.7,14 12.8,14 7.1,0 12.8,-6.3 12.8,-14 V 81.9 c 0,-1.4 1.2,-2.6 2.6,-2.6 1.4,0 2.6,1.2 2.6,2.6 v 57.6 c 0,4.9 3.9,9 9,9 5.1,0 9,-3.9 9,-9 V 76.8 C 40.5,62.6 28.8,51.2 14.9,51.2 Z"
         id="path1-7-9-3-1-2-1-3-8"
         style="fill:#55d400" /></g><g
       style="fill:#55d400"
       id="g10-2-9-6-0-6-0-5-4"
       transform="matrix(0.02846689,0,0,0.02846689,45.755311,40.682375)"><path
         d="m -10.9,4.9 c 11.3,0 20.5,9.2 20.5,20.5 0,11.3 -9.2,20.5 -20.5,20.5 -11.3,0 -20.5,-9.2 -20.5,-20.5 0,-11.3 9.2,-20.5 20.5,-20.5 z m 25.8,46.3 h -51.2 c -14.2,0 -25.6,11.4 -25.6,25.6 v 62.6 c 0,4.9 3.9,9 9,9 5.1,0 9,-3.9 9,-9 V 81.9 c 0,-1.4 1.2,-2.6 2.6,-2.6 1.4,0 2.6,1.2 2.6,2.6 v 155.2 c 0,7.7 5.7,14 12.8,14 7.1,0 12.8,-6.3 12.8,-14 v -88.5 c 0,-1.4 1.2,-2.6 2.6,-2.6 1.4,0 2.6,1.2 2.6,2.6 v 88.5 c 0,7.7 5.7,14 12.8,14 7.1,0 12.8,-6.3 12.8,-14 V 81.9 c 0,-1.4 1.2,-2.6 2.6,-2.6 1.4,0 2.6,1.2 2.6,2.6 v 57.6 c 0,4.9 3.9,9 9,9 5.1,0 9,-3.9 9,-9 V 76.8 C 40.5,62.6 28.8,51.2 14.9,51.2 Z"
         id="path1-7-9-3-1-2-1-3-4-3"
         style="fill:#55d400" /></g><g
       style="fill:#55d400"
       id="g10-2-9-6-0-6-0-5-5-1"
       transform="matrix(0.02846689,0,0,0.02846689,61.523021,40.682375)"><path
         d="m -10.9,4.9 c 11.3,0 20.5,9.2 20.5,20.5 0,11.3 -9.2,20.5 -20.5,20.5 -11.3,0 -20.5,-9.2 -20.5,-20.5 0,-11.3 9.2,-20.5 20.5,-20.5 z m 25.8,46.3 h -51.2 c -14.2,0 -25.6,11.4 -25.6,25.6 v 62.6 c 0,4.9 3.9,9 9,9 5.1,0 9,-3.9 9,-9 V 81.9 c 0,-1.4 1.2,-2.6 2.6,-2.6 1.4,0 2.6,1.2 2.6,2.6 v 155.2 c 0,7.7 5.7,14 12.8,14 7.1,0 12.8,-6.3 12.8,-14 v -88.5 c 0,-1.4 1.2,-2.6 2.6,-2.6 1.4,0 2.6,1.2 2.6,2.6 v 88.5 c 0,7.7 5.7,14 12.8,14 7.1,0 12.8,-6.3 12.8,-14 V 81.9 c 0,-1.4 1.2,-2.6 2.6,-2.6 1.4,0 2.6,1.2 2.6,2.6 v 57.6 c 0,4.9 3.9,9 9,9 5.1,0 9,-3.9 9,-9 V 76.8 C 40.5,62.6 28.8,51.2 14.9,51.2 Z"
         id="path1-7-9-3-1-2-1-3-4-4-4"
         style="fill:#55d400" /></g><g
       style="fill:#55d400"
       id="g10-2-9-6-0-09"
       transform="matrix(0.02846689,0,0,0.02846689,91.440231,43.948092)"><path
         d="m -10.9,4.9 c 11.3,0 20.5,9.2 20.5,20.5 0,11.3 -9.2,20.5 -20.5,20.5 -11.3,0 -20.5,-9.2 -20.5,-20.5 0,-11.3 9.2,-20.5 20.5,-20.5 z m 25.8,46.3 h -51.2 c -14.2,0 -25.6,11.4 -25.6,25.6 v 62.6 c 0,4.9 3.9,9 9,9 5.1,0 9,-3.9 9,-9 V 81.9 c 0,-1.4 1.2,-2.6 2.6,-2.6 1.4,0 2.6,1.2 2.6,2.6 v 155.2 c 0,7.7 5.7,14 12.8,14 7.1,0 12.8,-6.3 12.8,-14 v -88.5 c 0,-1.4 1.2,-2.6 2.6,-2.6 1.4,0 2.6,1.2 2.6,2.6 v 88.5 c 0,7.7 5.7,14 12.8,14 7.1,0 12.8,-6.3 12.8,-14 V 81.9 c 0,-1.4 1.2,-2.6 2.6,-2.6 1.4,0 2.6,1.2 2.6,2.6 v 57.6 c 0,4.9 3.9,9 9,9 5.1,0 9,-3.9 9,-9 V 76.8 C 40.5,62.6 28.8,51.2 14.9,51.2 Z"
         id="path1-7-9-3-1-2-17"
         style="fill:#55d400" /></g><g
       style="fill:#55d400"
       id="g10-2-9-6-0-6-7"
       transform="matrix(0.02846689,0,0,0.02846689,95.38214,43.948092)"><path
         d="m -10.9,4.9 c 11.3,0 20.5,9.2 20.5,20.5 0,11.3 -9.2,20.5 -20.5,20.5 -11.3,0 -20.5,-9.2 -20.5,-20.5 0,-11.3 9.2,-20.5 20.5,-20.5 z m 25.8,46.3 h -51.2 c -14.2,0 -25.6,11.4 -25.6,25.6 v 62.6 c 0,4.9 3.9,9 9,9 5.1,0 9,-3.9 9,-9 V 81.9 c 0,-1.4 1.2,-2.6 2.6,-2.6 1.4,0 2.6,1.2 2.6,2.6 v 155.2 c 0,7.7 5.7,14 12.8,14 7.1,0 12.8,-6.3 12.8,-14 v -88.5 c 0,-1.4 1.2,-2.6 2.6,-2.6 1.4,0 2.6,1.2 2.6,2.6 v 88.5 c 0,7.7 5.7,14 12.8,14 7.1,0 12.8,-6.3 12.8,-14 V 81.9 c 0,-1.4 1.2,-2.6 2.6,-2.6 1.4,0 2.6,1.2 2.6,2.6 v 57.6 c 0,4.9 3.9,9 9,9 5.1,0 9,-3.9 9,-9 V 76.8 C 40.5,62.6 28.8,51.2 14.9,51.2 Z"
         id="path1-7-9-3-1-2-1-1"
         style="fill:#55d400" /></g><g
       style="fill:#55d400"
       id="g10-2-9-6-0-6-0-1"
       transform="matrix(0.02846689,0,0,0.02846689,87.498325,43.948092)"><path
         d="m -10.9,4.9 c 11.3,0 20.5,9.2 20.5,20.5 0,11.3 -9.2,20.5 -20.5,20.5 -11.3,0 -20.5,-9.2 -20.5,-20.5 0,-11.3 9.2,-20.5 20.5,-20.5 z m 25.8,46.3 h -51.2 c -14.2,0 -25.6,11.4 -25.6,25.6 v 62.6 c 0,4.9 3.9,9 9,9 5.1,0 9,-3.9 9,-9 V 81.9 c 0,-1.4 1.2,-2.6 2.6,-2.6 1.4,0 2.6,1.2 2.6,2.6 v 155.2 c 0,7.7 5.7,14 12.8,14 7.1,0 12.8,-6.3 12.8,-14 v -88.5 c 0,-1.4 1.2,-2.6 2.6,-2.6 1.4,0 2.6,1.2 2.6,2.6 v 88.5 c 0,7.7 5.7,14 12.8,14 7.1,0 12.8,-6.3 12.8,-14 V 81.9 c 0,-1.4 1.2,-2.6 2.6,-2.6 1.4,0 2.6,1.2 2.6,2.6 v 57.6 c 0,4.9 3.9,9 9,9 5.1,0 9,-3.9 9,-9 V 76.8 C 40.5,62.6 28.8,51.2 14.9,51.2 Z"
         id="path1-7-9-3-1-2-1-3-5"
         style="fill:#55d400" /></g><g
       style="fill:#55d400"
       id="g10-2-9-6-0-6-0-5-9"
       transform="matrix(0.02846689,0,0,0.02846689,83.556426,43.948092)"><path
         d="m -10.9,4.9 c 11.3,0 20.5,9.2 20.5,20.5 0,11.3 -9.2,20.5 -20.5,20.5 -11.3,0 -20.5,-9.2 -20.5,-20.5 0,-11.3 9.2,-20.5 20.5,-20.5 z m 25.8,46.3 h -51.2 c -14.2,0 -25.6,11.4 -25.6,25.6 v 62.6 c 0,4.9 3.9,9 9,9 5.1,0 9,-3.9 9,-9 V 81.9 c 0,-1.4 1.2,-2.6 2.6,-2.6 1.4,0 2.6,1.2 2.6,2.6 v 155.2 c 0,7.7 5.7,14 12.8,14 7.1,0 12.8,-6.3 12.8,-14 v -88.5 c 0,-1.4 1.2,-2.6 2.6,-2.6 1.4,0 2.6,1.2 2.6,2.6 v 88.5 c 0,7.7 5.7,14 12.8,14 7.1,0 12.8,-6.3 12.8,-14 V 81.9 c 0,-1.4 1.2,-2.6 2.6,-2.6 1.4,0 2.6,1.2 2.6,2.6 v 57.6 c 0,4.9 3.9,9 9,9 5.1,0 9,-3.9 9,-9 V 76.8 C 40.5,62.6 28.8,51.2 14.9,51.2 Z"
         id="path1-7-9-3-1-2-1-3-4-7"
         style="fill:#55d400" /></g><g
       style="fill:#55d400"
       id="g10-2-9-6-0-6-0-5-5-76"
       transform="matrix(0.02846689,0,0,0.02846689,99.324046,43.948092)"><path
         d="m -10.9,4.9 c 11.3,0 20.5,9.2 20.5,20.5 0,11.3 -9.2,20.5 -20.5,20.5 -11.3,0 -20.5,-9.2 -20.5,-20.5 0,-11.3 9.2,-20.5 20.5,-20.5 z m 25.8,46.3 h -51.2 c -14.2,0 -25.6,11.4 -25.6,25.6 v 62.6 c 0,4.9 3.9,9 9,9 5.1,0 9,-3.9 9,-9 V 81.9 c 0,-1.4 1.2,-2.6 2.6,-2.6 1.4,0 2.6,1.2 2.6,2.6 v 155.2 c 0,7.7 5.7,14 12.8,14 7.1,0 12.8,-6.3 12.8,-14 v -88.5 c 0,-1.4 1.2,-2.6 2.6,-2.6 1.4,0 2.6,1.2 2.6,2.6 v 88.5 c 0,7.7 5.7,14 12.8,14 7.1,0 12.8,-6.3 12.8,-14 V 81.9 c 0,-1.4 1.2,-2.6 2.6,-2.6 1.4,0 2.6,1.2 2.6,2.6 v 57.6 c 0,4.9 3.9,9 9,9 5.1,0 9,-3.9 9,-9 V 76.8 C 40.5,62.6 28.8,51.2 14.9,51.2 Z"
         id="path1-7-9-3-1-2-1-3-4-4-7"
         style="fill:#55d400" /></g><g
       style="fill:#55d400"
       id="g10-2-9-6-0-0-3"
       transform="matrix(0.02846689,0,0,0.02846689,91.398171,51.772128)"><path
         d="m -10.9,4.9 c 11.3,0 20.5,9.2 20.5,20.5 0,11.3 -9.2,20.5 -20.5,20.5 -11.3,0 -20.5,-9.2 -20.5,-20.5 0,-11.3 9.2,-20.5 20.5,-20.5 z m 25.8,46.3 h -51.2 c -14.2,0 -25.6,11.4 -25.6,25.6 v 62.6 c 0,4.9 3.9,9 9,9 5.1,0 9,-3.9 9,-9 V 81.9 c 0,-1.4 1.2,-2.6 2.6,-2.6 1.4,0 2.6,1.2 2.6,2.6 v 155.2 c 0,7.7 5.7,14 12.8,14 7.1,0 12.8,-6.3 12.8,-14 v -88.5 c 0,-1.4 1.2,-2.6 2.6,-2.6 1.4,0 2.6,1.2 2.6,2.6 v 88.5 c 0,7.7 5.7,14 12.8,14 7.1,0 12.8,-6.3 12.8,-14 V 81.9 c 0,-1.4 1.2,-2.6 2.6,-2.6 1.4,0 2.6,1.2 2.6,2.6 v 57.6 c 0,4.9 3.9,9 9,9 5.1,0 9,-3.9 9,-9 V 76.8 C 40.5,62.6 28.8,51.2 14.9,51.2 Z"
         id="path1-7-9-3-1-2-7-6"
         style="fill:#55d400" /></g><g
       style="fill:#55d400"
       id="g10-2-9-6-0-6-8-5"
       transform="matrix(0.02846689,0,0,0.02846689,95.34008,51.772128)"><path
         d="m -10.9,4.9 c 11.3,0 20.5,9.2 20.5,20.5 0,11.3 -9.2,20.5 -20.5,20.5 -11.3,0 -20.5,-9.2 -20.5,-20.5 0,-11.3 9.2,-20.5 20.5,-20.5 z m 25.8,46.3 h -51.2 c -14.2,0 -25.6,11.4 -25.6,25.6 v 62.6 c 0,4.9 3.9,9 9,9 5.1,0 9,-3.9 9,-9 V 81.9 c 0,-1.4 1.2,-2.6 2.6,-2.6 1.4,0 2.6,1.2 2.6,2.6 v 155.2 c 0,7.7 5.7,14 12.8,14 7.1,0 12.8,-6.3 12.8,-14 v -88.5 c 0,-1.4 1.2,-2.6 2.6,-2.6 1.4,0 2.6,1.2 2.6,2.6 v 88.5 c 0,7.7 5.7,14 12.8,14 7.1,0 12.8,-6.3 12.8,-14 V 81.9 c 0,-1.4 1.2,-2.6 2.6,-2.6 1.4,0 2.6,1.2 2.6,2.6 v 57.6 c 0,4.9 3.9,9 9,9 5.1,0 9,-3.9 9,-9 V 76.8 C 40.5,62.6 28.8,51.2 14.9,51.2 Z"
         id="path1-7-9-3-1-2-1-6-6"
         style="fill:#55d400" /></g><g
       style="fill:#55d400"
       id="g10-2-9-6-0-6-0-8-3"
       transform="matrix(0.02846689,0,0,0.02846689,87.456275,51.772128)"><path
         d="m -10.9,4.9 c 11.3,0 20.5,9.2 20.5,20.5 0,11.3 -9.2,20.5 -20.5,20.5 -11.3,0 -20.5,-9.2 -20.5,-20.5 0,-11.3 9.2,-20.5 20.5,-20.5 z m 25.8,46.3 h -51.2 c -14.2,0 -25.6,11.4 -25.6,25.6 v 62.6 c 0,4.9 3.9,9 9,9 5.1,0 9,-3.9 9,-9 V 81.9 c 0,-1.4 1.2,-2.6 2.6,-2.6 1.4,0 2.6,1.2 2.6,2.6 v 155.2 c 0,7.7 5.7,14 12.8,14 7.1,0 12.8,-6.3 12.8,-14 v -88.5 c 0,-1.4 1.2,-2.6 2.6,-2.6 1.4,0 2.6,1.2 2.6,2.6 v 88.5 c 0,7.7 5.7,14 12.8,14 7.1,0 12.8,-6.3 12.8,-14 V 81.9 c 0,-1.4 1.2,-2.6 2.6,-2.6 1.4,0 2.6,1.2 2.6,2.6 v 57.6 c 0,4.9 3.9,9 9,9 5.1,0 9,-3.9 9,-9 V 76.8 C 40.5,62.6 28.8,51.2 14.9,51.2 Z"
         id="path1-7-9-3-1-2-1-3-8-9"
         style="fill:#55d400" /></g><g
       style="fill:#55d400"
       id="g10-2-9-6-0-6-0-5-4-4"
       transform="matrix(0.02846689,0,0,0.02846689,83.514366,51.772128)"><path
         d="m -10.9,4.9 c 11.3,0 20.5,9.2 20.5,20.5 0,11.3 -9.2,20.5 -20.5,20.5 -11.3,0 -20.5,-9.2 -20.5,-20.5 0,-11.3 9.2,-20.5 20.5,-20.5 z m 25.8,46.3 h -51.2 c -14.2,0 -25.6,11.4 -25.6,25.6 v 62.6 c 0,4.9 3.9,9 9,9 5.1,0 9,-3.9 9,-9 V 81.9 c 0,-1.4 1.2,-2.6 2.6,-2.6 1.4,0 2.6,1.2 2.6,2.6 v 155.2 c 0,7.7 5.7,14 12.8,14 7.1,0 12.8,-6.3 12.8,-14 v -88.5 c 0,-1.4 1.2,-2.6 2.6,-2.6 1.4,0 2.6,1.2 2.6,2.6 v 88.5 c 0,7.7 5.7,14 12.8,14 7.1,0 12.8,-6.3 12.8,-14 V 81.9 c 0,-1.4 1.2,-2.6 2.6,-2.6 1.4,0 2.6,1.2 2.6,2.6 v 57.6 c 0,4.9 3.9,9 9,9 5.1,0 9,-3.9 9,-9 V 76.8 C 40.5,62.6 28.8,51.2 14.9,51.2 Z"
         id="path1-7-9-3-1-2-1-3-4-3-8"
         style="fill:#55d400" /></g><g
       style="fill:#55d400"
       id="g10-2-9-6-0-6-0-5-5-1-1"
       transform="matrix(0.02846689,0,0,0.02846689,99.281989,51.772128)"><path
         d="m -10.9,4.9 c 11.3,0 20.5,9.2 20.5,20.5 0,11.3 -9.2,20.5 -20.5,20.5 -11.3,0 -20.5,-9.2 -20.5,-20.5 0,-11.3 9.2,-20.5 20.5,-20.5 z m 25.8,46.3 h -51.2 c -14.2,0 -25.6,11.4 -25.6,25.6 v 62.6 c 0,4.9 3.9,9 9,9 5.1,0 9,-3.9 9,-9 V 81.9 c 0,-1.4 1.2,-2.6 2.6,-2.6 1.4,0 2.6,1.2 2.6,2.6 v 155.2 c 0,7.7 5.7,14 12.8,14 7.1,0 12.8,-6.3 12.8,-14 v -88.5 c 0,-1.4 1.2,-2.6 2.6,-2.6 1.4,0 2.6,1.2 2.6,2.6 v 88.5 c 0,7.7 5.7,14 12.8,14 7.1,0 12.8,-6.3 12.8,-14 V 81.9 c 0,-1.4 1.2,-2.6 2.6,-2.6 1.4,0 2.6,1.2 2.6,2.6 v 57.6 c 0,4.9 3.9,9 9,9 5.1,0 9,-3.9 9,-9 V 76.8 C 40.5,62.6 28.8,51.2 14.9,51.2 Z"
         id="path1-7-9-3-1-2-1-3-4-4-4-2"
         style="fill:#55d400" /></g><g
       style="fill:#d40000"
       id="g10-2-9-6-0-8"
       transform="matrix(0.02846689,0,0,0.02846689,91.860851,21.850069)"><path
         d="m -10.9,4.9 c 11.3,0 20.5,9.2 20.5,20.5 0,11.3 -9.2,20.5 -20.5,20.5 -11.3,0 -20.5,-9.2 -20.5,-20.5 0,-11.3 9.2,-20.5 20.5,-20.5 z m 25.8,46.3 h -51.2 c -14.2,0 -25.6,11.4 -25.6,25.6 v 62.6 c 0,4.9 3.9,9 9,9 5.1,0 9,-3.9 9,-9 V 81.9 c 0,-1.4 1.2,-2.6 2.6,-2.6 1.4,0 2.6,1.2 2.6,2.6 v 155.2 c 0,7.7 5.7,14 12.8,14 7.1,0 12.8,-6.3 12.8,-14 v -88.5 c 0,-1.4 1.2,-2.6 2.6,-2.6 1.4,0 2.6,1.2 2.6,2.6 v 88.5 c 0,7.7 5.7,14 12.8,14 7.1,0 12.8,-6.3 12.8,-14 V 81.9 c 0,-1.4 1.2,-2.6 2.6,-2.6 1.4,0 2.6,1.2 2.6,2.6 v 57.6 c 0,4.9 3.9,9 9,9 5.1,0 9,-3.9 9,-9 V 76.8 C 40.5,62.6 28.8,51.2 14.9,51.2 Z"
         id="path1-7-9-3-1-2-9"
         style="fill:#d40000" /></g><g
       style="fill:#55d400"
       id="g10-2-9-6-0-6-2"
       transform="matrix(0.02846689,0,0,0.02846689,95.802757,21.850069)"><path
         d="m -10.9,4.9 c 11.3,0 20.5,9.2 20.5,20.5 0,11.3 -9.2,20.5 -20.5,20.5 -11.3,0 -20.5,-9.2 -20.5,-20.5 0,-11.3 9.2,-20.5 20.5,-20.5 z m 25.8,46.3 h -51.2 c -14.2,0 -25.6,11.4 -25.6,25.6 v 62.6 c 0,4.9 3.9,9 9,9 5.1,0 9,-3.9 9,-9 V 81.9 c 0,-1.4 1.2,-2.6 2.6,-2.6 1.4,0 2.6,1.2 2.6,2.6 v 155.2 c 0,7.7 5.7,14 12.8,14 7.1,0 12.8,-6.3 12.8,-14 v -88.5 c 0,-1.4 1.2,-2.6 2.6,-2.6 1.4,0 2.6,1.2 2.6,2.6 v 88.5 c 0,7.7 5.7,14 12.8,14 7.1,0 12.8,-6.3 12.8,-14 V 81.9 c 0,-1.4 1.2,-2.6 2.6,-2.6 1.4,0 2.6,1.2 2.6,2.6 v 57.6 c 0,4.9 3.9,9 9,9 5.1,0 9,-3.9 9,-9 V 76.8 C 40.5,62.6 28.8,51.2 14.9,51.2 Z"
         id="path1-7-9-3-1-2-1-66"
         style="fill:#55d400" /></g><g
       style="fill:#d40000"
       id="g10-2-9-6-0-6-0-4"
       transform="matrix(0.02846689,0,0,0.02846689,87.918942,21.850069)"><path
         d="m -10.9,4.9 c 11.3,0 20.5,9.2 20.5,20.5 0,11.3 -9.2,20.5 -20.5,20.5 -11.3,0 -20.5,-9.2 -20.5,-20.5 0,-11.3 9.2,-20.5 20.5,-20.5 z m 25.8,46.3 h -51.2 c -14.2,0 -25.6,11.4 -25.6,25.6 v 62.6 c 0,4.9 3.9,9 9,9 5.1,0 9,-3.9 9,-9 V 81.9 c 0,-1.4 1.2,-2.6 2.6,-2.6 1.4,0 2.6,1.2 2.6,2.6 v 155.2 c 0,7.7 5.7,14 12.8,14 7.1,0 12.8,-6.3 12.8,-14 v -88.5 c 0,-1.4 1.2,-2.6 2.6,-2.6 1.4,0 2.6,1.2 2.6,2.6 v 88.5 c 0,7.7 5.7,14 12.8,14 7.1,0 12.8,-6.3 12.8,-14 V 81.9 c 0,-1.4 1.2,-2.6 2.6,-2.6 1.4,0 2.6,1.2 2.6,2.6 v 57.6 c 0,4.9 3.9,9 9,9 5.1,0 9,-3.9 9,-9 V 76.8 C 40.5,62.6 28.8,51.2 14.9,51.2 Z"
         id="path1-7-9-3-1-2-1-3-9"
         style="fill:#d40000" /></g><g
       style="fill:#d40000"
       id="g10-2-9-6-0-6-0-5-50"
       transform="matrix(0.02846689,0,0,0.02846689,83.977033,21.850069)"><path
         d="m -10.9,4.9 c 11.3,0 20.5,9.2 20.5,20.5 0,11.3 -9.2,20.5 -20.5,20.5 -11.3,0 -20.5,-9.2 -20.5,-20.5 0,-11.3 9.2,-20.5 20.5,-20.5 z m 25.8,46.3 h -51.2 c -14.2,0 -25.6,11.4 -25.6,25.6 v 62.6 c 0,4.9 3.9,9 9,9 5.1,0 9,-3.9 9,-9 V 81.9 c 0,-1.4 1.2,-2.6 2.6,-2.6 1.4,0 2.6,1.2 2.6,2.6 v 155.2 c 0,7.7 5.7,14 12.8,14 7.1,0 12.8,-6.3 12.8,-14 v -88.5 c 0,-1.4 1.2,-2.6 2.6,-2.6 1.4,0 2.6,1.2 2.6,2.6 v 88.5 c 0,7.7 5.7,14 12.8,14 7.1,0 12.8,-6.3 12.8,-14 V 81.9 c 0,-1.4 1.2,-2.6 2.6,-2.6 1.4,0 2.6,1.2 2.6,2.6 v 57.6 c 0,4.9 3.9,9 9,9 5.1,0 9,-3.9 9,-9 V 76.8 C 40.5,62.6 28.8,51.2 14.9,51.2 Z"
         id="path1-7-9-3-1-2-1-3-4-48"
         style="fill:#d40000" /></g><g
       style="fill:#d40000"
       id="g10-2-9-6-0-6-0-5-5-7"
       transform="matrix(0.02846689,0,0,0.02846689,99.744656,21.850069)"><path
         d="m -10.9,4.9 c 11.3,0 20.5,9.2 20.5,20.5 0,11.3 -9.2,20.5 -20.5,20.5 -11.3,0 -20.5,-9.2 -20.5,-20.5 0,-11.3 9.2,-20.5 20.5,-20.5 z m 25.8,46.3 h -51.2 c -14.2,0 -25.6,11.4 -25.6,25.6 v 62.6 c 0,4.9 3.9,9 9,9 5.1,0 9,-3.9 9,-9 V 81.9 c 0,-1.4 1.2,-2.6 2.6,-2.6 1.4,0 2.6,1.2 2.6,2.6 v 155.2 c 0,7.7 5.7,14 12.8,14 7.1,0 12.8,-6.3 12.8,-14 v -88.5 c 0,-1.4 1.2,-2.6 2.6,-2.6 1.4,0 2.6,1.2 2.6,2.6 v 88.5 c 0,7.7 5.7,14 12.8,14 7.1,0 12.8,-6.3 12.8,-14 V 81.9 c 0,-1.4 1.2,-2.6 2.6,-2.6 1.4,0 2.6,1.2 2.6,2.6 v 57.6 c 0,4.9 3.9,9 9,9 5.1,0 9,-3.9 9,-9 V 76.8 C 40.5,62.6 28.8,51.2 14.9,51.2 Z"
         id="path1-7-9-3-1-2-1-3-4-4-1"
         style="fill:#d40000" /></g><g
       style="fill:#d40000"
       id="g10-2-9-6-0-0-7"
       transform="matrix(0.02846689,0,0,0.02846689,91.818791,29.674105)"><path
         d="m -10.9,4.9 c 11.3,0 20.5,9.2 20.5,20.5 0,11.3 -9.2,20.5 -20.5,20.5 -11.3,0 -20.5,-9.2 -20.5,-20.5 0,-11.3 9.2,-20.5 20.5,-20.5 z m 25.8,46.3 h -51.2 c -14.2,0 -25.6,11.4 -25.6,25.6 v 62.6 c 0,4.9 3.9,9 9,9 5.1,0 9,-3.9 9,-9 V 81.9 c 0,-1.4 1.2,-2.6 2.6,-2.6 1.4,0 2.6,1.2 2.6,2.6 v 155.2 c 0,7.7 5.7,14 12.8,14 7.1,0 12.8,-6.3 12.8,-14 v -88.5 c 0,-1.4 1.2,-2.6 2.6,-2.6 1.4,0 2.6,1.2 2.6,2.6 v 88.5 c 0,7.7 5.7,14 12.8,14 7.1,0 12.8,-6.3 12.8,-14 V 81.9 c 0,-1.4 1.2,-2.6 2.6,-2.6 1.4,0 2.6,1.2 2.6,2.6 v 57.6 c 0,4.9 3.9,9 9,9 5.1,0 9,-3.9 9,-9 V 76.8 C 40.5,62.6 28.8,51.2 14.9,51.2 Z"
         id="path1-7-9-3-1-2-7-2"
         style="fill:#d40000" /></g><g
       style="fill:#d40000"
       id="g10-2-9-6-0-6-8-7"
       transform="matrix(0.02846689,0,0,0.02846689,95.760697,29.674105)"><path
         d="m -10.9,4.9 c 11.3,0 20.5,9.2 20.5,20.5 0,11.3 -9.2,20.5 -20.5,20.5 -11.3,0 -20.5,-9.2 -20.5,-20.5 0,-11.3 9.2,-20.5 20.5,-20.5 z m 25.8,46.3 h -51.2 c -14.2,0 -25.6,11.4 -25.6,25.6 v 62.6 c 0,4.9 3.9,9 9,9 5.1,0 9,-3.9 9,-9 V 81.9 c 0,-1.4 1.2,-2.6 2.6,-2.6 1.4,0 2.6,1.2 2.6,2.6 v 155.2 c 0,7.7 5.7,14 12.8,14 7.1,0 12.8,-6.3 12.8,-14 v -88.5 c 0,-1.4 1.2,-2.6 2.6,-2.6 1.4,0 2.6,1.2 2.6,2.6 v 88.5 c 0,7.7 5.7,14 12.8,14 7.1,0 12.8,-6.3 12.8,-14 V 81.9 c 0,-1.4 1.2,-2.6 2.6,-2.6 1.4,0 2.6,1.2 2.6,2.6 v 57.6 c 0,4.9 3.9,9 9,9 5.1,0 9,-3.9 9,-9 V 76.8 C 40.5,62.6 28.8,51.2 14.9,51.2 Z"
         id="path1-7-9-3-1-2-1-6-2"
         style="fill:#d40000" /></g><g
       style="fill:#55d400"
       id="g10-2-9-6-0-6-0-8-2"
       transform="matrix(0.02846689,0,0,0.02846689,87.876882,29.674105)"><path
         d="m -10.9,4.9 c 11.3,0 20.5,9.2 20.5,20.5 0,11.3 -9.2,20.5 -20.5,20.5 -11.3,0 -20.5,-9.2 -20.5,-20.5 0,-11.3 9.2,-20.5 20.5,-20.5 z m 25.8,46.3 h -51.2 c -14.2,0 -25.6,11.4 -25.6,25.6 v 62.6 c 0,4.9 3.9,9 9,9 5.1,0 9,-3.9 9,-9 V 81.9 c 0,-1.4 1.2,-2.6 2.6,-2.6 1.4,0 2.6,1.2 2.6,2.6 v 155.2 c 0,7.7 5.7,14 12.8,14 7.1,0 12.8,-6.3 12.8,-14 v -88.5 c 0,-1.4 1.2,-2.6 2.6,-2.6 1.4,0 2.6,1.2 2.6,2.6 v 88.5 c 0,7.7 5.7,14 12.8,14 7.1,0 12.8,-6.3 12.8,-14 V 81.9 c 0,-1.4 1.2,-2.6 2.6,-2.6 1.4,0 2.6,1.2 2.6,2.6 v 57.6 c 0,4.9 3.9,9 9,9 5.1,0 9,-3.9 9,-9 V 76.8 C 40.5,62.6 28.8,51.2 14.9,51.2 Z"
         id="path1-7-9-3-1-2-1-3-8-6"
         style="fill:#55d400" /></g><g
       style="fill:#d40000"
       id="g10-2-9-6-0-6-0-5-4-1"
       transform="matrix(0.02846689,0,0,0.02846689,83.934986,29.674105)"><path
         d="m -10.9,4.9 c 11.3,0 20.5,9.2 20.5,20.5 0,11.3 -9.2,20.5 -20.5,20.5 -11.3,0 -20.5,-9.2 -20.5,-20.5 0,-11.3 9.2,-20.5 20.5,-20.5 z m 25.8,46.3 h -51.2 c -14.2,0 -25.6,11.4 -25.6,25.6 v 62.6 c 0,4.9 3.9,9 9,9 5.1,0 9,-3.9 9,-9 V 81.9 c 0,-1.4 1.2,-2.6 2.6,-2.6 1.4,0 2.6,1.2 2.6,2.6 v 155.2 c 0,7.7 5.7,14 12.8,14 7.1,0 12.8,-6.3 12.8,-14 v -88.5 c 0,-1.4 1.2,-2.6 2.6,-2.6 1.4,0 2.6,1.2 2.6,2.6 v 88.5 c 0,7.7 5.7,14 12.8,14 7.1,0 12.8,-6.3 12.8,-14 V 81.9 c 0,-1.4 1.2,-2.6 2.6,-2.6 1.4,0 2.6,1.2 2.6,2.6 v 57.6 c 0,4.9 3.9,9 9,9 5.1,0 9,-3.9 9,-9 V 76.8 C 40.5,62.6 28.8,51.2 14.9,51.2 Z"
         id="path1-7-9-3-1-2-1-3-4-3-0"
         style="fill:#d40000" /></g><g
       style="fill:#55d400"
       id="g10-2-9-6-0-6-0-5-5-1-6"
       transform="matrix(0.02846689,0,0,0.02846689,99.702606,29.674105)"><path
         d="m -10.9,4.9 c 11.3,0 20.5,9.2 20.5,20.5 0,11.3 -9.2,20.5 -20.5,20.5 -11.3,0 -20.5,-9.2 -20.5,-20.5 0,-11.3 9.2,-20.5 20.5,-20.5 z m 25.8,46.3 h -51.2 c -14.2,0 -25.6,11.4 -25.6,25.6 v 62.6 c 0,4.9 3.9,9 9,9 5.1,0 9,-3.9 9,-9 V 81.9 c 0,-1.4 1.2,-2.6 2.6,-2.6 1.4,0 2.6,1.2 2.6,2.6 v 155.2 c 0,7.7 5.7,14 12.8,14 7.1,0 12.8,-6.3 12.8,-14 v -88.5 c 0,-1.4 1.2,-2.6 2.6,-2.6 1.4,0 2.6,1.2 2.6,2.6 v 88.5 c 0,7.7 5.7,14 12.8,14 7.1,0 12.8,-6.3 12.8,-14 V 81.9 c 0,-1.4 1.2,-2.6 2.6,-2.6 1.4,0 2.6,1.2 2.6,2.6 v 57.6 c 0,4.9 3.9,9 9,9 5.1,0 9,-3.9 9,-9 V 76.8 C 40.5,62.6 28.8,51.2 14.9,51.2 Z"
         id="path1-7-9-3-1-2-1-3-4-4-4-1"
         style="fill:#55d400" /></g><path
       style="fill:#55d400;stroke:#000000;stroke-width:0.919454;stroke-dasharray:none;marker-end:url(#ArrowTriangleStylized)"
       d="M 36.719444,40.643044 H 18.555408 Z"
       id="path103" /><path
       style="fill:#55d400;stroke:#000000;stroke-width:0.768496;stroke-dasharray:none;marker-end:url(#ArrowTriangleStylized-9)"
       d="M 78.145394,32.346443 65.50597,40.756729 Z"
       id="path103-5" /><path
       style="fill:#55d400;stroke:#000000;stroke-width:0.768496;stroke-dasharray:none;marker-end:url(#ArrowTriangleStylized-9-6)"
       d="M 78.25771,48.776343 65.618286,40.366057 Z"
       id="path103-5-6" /><rect
       style="fill:#55d400;stroke:#000000;stroke-width:0.919454;stroke-dasharray:none;fill-opacity:0"
       id="rect105"
       width="106.21607"
       height="59.410675"
       x="4.2353592"
       y="3.286021" /><g
       inkscape:label=""
       transform="translate(43.342044,7.0152201)"
       id="g58"><g
   fill="#000000"
   fill-opacity="1"
   id="g20"
   transform="matrix(0.352778,0,0,0.352778,-0.929084,-0.660797)">
    <g
   id="g11"
   transform="translate(1.993,10.295)">
      <path
   d="M 2.484375,-4.984375 C 1.875,-5.140625 1.34375,-5.734375 1.34375,-6.5 c 0,-0.84375 0.671875,-1.59375 1.59375,-1.59375 1.96875,0 2.21875,1.9375 2.296875,2.453125 0.03125,0.140625 0.03125,0.1875 0.140625,0.1875 0.140625,0 0.140625,-0.0625 0.140625,-0.265625 v -2.421875 c 0,-0.21875 0,-0.28125 -0.125,-0.28125 -0.03125,0 -0.078125,0 -0.171875,0.15625 L 4.828125,-7.53125 C 4.25,-8.265625 3.46875,-8.421875 2.9375,-8.421875 c -1.328125,0 -2.296875,1.078125 -2.296875,2.296875 0,0.5625 0.203125,1.09375 0.65625,1.578125 0.40625,0.453125 0.828125,0.5625 1.671875,0.78125 0.421875,0.09375 1.078125,0.265625 1.25,0.328125 0.5625,0.28125 0.9375,0.921875 0.9375,1.59375 0,0.90625 -0.640625,1.75 -1.625,1.75 -0.546875,0 -1.28125,-0.140625 -1.875,-0.640625 -0.6875,-0.625 -0.734375,-1.484375 -0.75,-1.890625 -0.015625,-0.09375 -0.109375,-0.09375 -0.125,-0.09375 -0.140625,0 -0.140625,0.0625 -0.140625,0.28125 v 2.40625 c 0,0.21875 0,0.28125 0.125,0.28125 C 0.84375,0.25 0.84375,0.234375 0.9375,0.078125 0.984375,-0.015625 1.234375,-0.453125 1.328125,-0.640625 1.75,-0.15625 2.515625,0.25 3.53125,0.25 4.875,0.25 5.84375,-0.890625 5.84375,-2.203125 5.84375,-2.921875 5.5625,-3.46875 5.25,-3.859375 4.8125,-4.40625 4.265625,-4.53125 3.796875,-4.65625 Z m 0,0"
   id="path6" />
    </g>
    <g
   id="g12"
   transform="translate(8.4966288,10.295)">
      <path
   d="m 3.640625,-5.140625 v 0.34375 c 0.8125,0 0.90625,0.09375 0.90625,0.671875 v 2.140625 C 4.546875,-0.96875 4,-0.125 3.109375,-0.125 2.125,-0.125 2.0625,-0.6875 2.0625,-1.3125 v -3.953125 l -1.6875,0.125 v 0.34375 c 0.921875,0 0.921875,0.046875 0.921875,1.109375 v 1.78125 c 0,0.75 0,1.171875 0.359375,1.578125 C 1.9375,-0.03125 2.421875,0.125 3.03125,0.125 c 0.203125,0 0.59375,0 1,-0.359375 C 4.375,-0.5 4.5625,-0.953125 4.5625,-0.953125 V 0.125 L 6.234375,0 v -0.34375 c -0.8125,0 -0.921875,-0.09375 -0.921875,-0.671875 v -4.25 z m 0,0"
   id="path11" />
    </g>
    <g
   id="g13"
   transform="translate(15.000258,10.295)">
      <path
   d="m 3.921875,-5.0625 c 0,-0.203125 0,-0.265625 -0.125,-0.265625 -0.09375,0 -0.3125,0.265625 -0.40625,0.375 -0.359375,-0.3125 -0.734375,-0.375 -1.125,-0.375 -1.4375,0 -1.875,0.78125 -1.875,1.4375 0,0.140625 0,0.5625 0.453125,0.96875 0.390625,0.34375 0.796875,0.421875 1.34375,0.53125 0.65625,0.125 0.8125,0.171875 1.109375,0.40625 0.21875,0.171875 0.375,0.4375 0.375,0.78125 C 3.671875,-0.6875 3.375,-0.125 2.3125,-0.125 1.53125,-0.125 0.953125,-0.578125 0.6875,-1.765625 0.640625,-1.984375 0.640625,-2 0.640625,-2.015625 0.609375,-2.0625 0.5625,-2.0625 0.53125,-2.0625 0.390625,-2.0625 0.390625,-2 0.390625,-1.78125 v 1.625 c 0,0.21875 0,0.28125 0.125,0.28125 0.0625,0 0.0625,-0.015625 0.265625,-0.265625 C 0.84375,-0.234375 0.84375,-0.25 1.03125,-0.4375 1.484375,0.125 2.125,0.125 2.328125,0.125 c 1.25,0 1.875,-0.703125 1.875,-1.640625 0,-0.640625 -0.390625,-1.03125 -0.5,-1.140625 -0.421875,-0.375 -0.75,-0.4375 -1.546875,-0.578125 -0.34375,-0.078125 -1.21875,-0.25 -1.21875,-0.96875 0,-0.359375 0.25,-0.90625 1.328125,-0.90625 1.296875,0 1.375,1.109375 1.390625,1.46875 0.015625,0.109375 0.09375,0.109375 0.140625,0.109375 0.125,0 0.125,-0.0625 0.125,-0.28125 z m 0,0"
   id="path12" />
    </g>
    <g
   id="g18"
   transform="translate(19.617355,10.295)">
      <path
   d="m 4.328125,-4.421875 c -0.140625,0 -0.59375,0 -0.59375,0.484375 0,0.296875 0.203125,0.5 0.5,0.5 0.265625,0 0.5,-0.171875 0.5,-0.515625 0,-0.796875 -0.84375,-1.375 -1.8125,-1.375 -1.390625,0 -2.5,1.234375 -2.5,2.75 0,1.53125 1.140625,2.703125 2.5,2.703125 1.578125,0 1.9375,-1.4375 1.9375,-1.546875 0,-0.109375 -0.09375,-0.109375 -0.125,-0.109375 -0.109375,0 -0.125,0.03125 -0.15625,0.1875 C 4.3125,-0.5 3.671875,-0.140625 3.03125,-0.140625 c -0.734375,0 -1.703125,-0.640625 -1.703125,-2.453125 0,-1.984375 1.015625,-2.46875 1.609375,-2.46875 0.453125,0 1.109375,0.171875 1.390625,0.640625 z m 0,0"
   id="path13" />
    </g>
    <g
   id="g27"
   transform="translate(24.820259,10.295)">
      <path
   d="m 4.578125,-2.765625 c 0.265625,0 0.28125,0 0.28125,-0.234375 0,-1.203125 -0.640625,-2.328125 -2.09375,-2.328125 -1.359375,0 -2.40625,1.234375 -2.40625,2.703125 0,1.578125 1.21875,2.75 2.546875,2.75 1.421875,0 1.953125,-1.296875 1.953125,-1.546875 0,-0.078125 -0.046875,-0.125 -0.125,-0.125 -0.09375,0 -0.125,0.0625 -0.140625,0.125 -0.3125,1 -1.109375,1.28125 -1.625,1.28125 -0.5,0 -1.703125,-0.34375 -1.703125,-2.40625 v -0.21875 z M 1.28125,-3 c 0.09375,-1.875 1.140625,-2.09375 1.484375,-2.09375 1.28125,0 1.34375,1.6875 1.359375,2.09375 z m 0,0"
   id="path27" />
    </g>
    <g
   id="g28"
   transform="translate(30.023163,10.295)">
      <path
   d="m 2.921875,1.96875 c -0.765625,0 -0.90625,0 -0.90625,-0.53125 V -0.640625 C 2.234375,-0.34375 2.71875,0.125 3.484375,0.125 c 1.375,0 2.59375,-1.171875 2.59375,-2.703125 0,-1.515625 -1.125,-2.6875 -2.4375,-2.6875 -1.046875,0 -1.609375,0.75 -1.640625,0.796875 v -0.796875 l -1.671875,0.125 v 0.34375 c 0.84375,0 0.921875,0.09375 0.921875,0.609375 v 5.625 c 0,0.53125 -0.140625,0.53125 -0.921875,0.53125 V 2.3125 C 0.640625,2.296875 1.296875,2.296875 1.625,2.296875 c 0.34375,0 1,0 1.296875,0.015625 z M 2.015625,-3.8125 c 0,-0.234375 0,-0.234375 0.140625,-0.4375 0.359375,-0.53125 0.9375,-0.765625 1.390625,-0.765625 0.90625,0 1.609375,1.09375 1.609375,2.4375 0,1.421875 -0.8125,2.453125 -1.71875,2.453125 -0.375,0 -0.71875,-0.15625 -0.96875,-0.375 C 2.203125,-0.78125 2.015625,-1.015625 2.015625,-1.34375 Z m 0,0"
   id="path28" />
    </g>
    <g
   id="g29"
   transform="translate(36.526791,10.295)">
      <path
   d="M 2.015625,-4.8125 H 3.6875 V -5.15625 H 2.015625 v -2.1875 H 1.75 C 1.734375,-6.234375 1.296875,-5.078125 0.21875,-5.046875 V -4.8125 h 1.015625 v 3.328125 c 0,1.328125 0.875,1.609375 1.515625,1.609375 0.75,0 1.140625,-0.75 1.140625,-1.609375 V -2.15625 h -0.25 V -1.5 c 0,0.859375 -0.359375,1.359375 -0.8125,1.359375 -0.8125,0 -0.8125,-1.109375 -0.8125,-1.3125 z m 0,0"
   id="path29" />
    </g>
    <g
   id="g30"
   transform="translate(41.07933,10.295)">
      <path
   d="m 2.078125,-7.359375 c 0,-0.3125 -0.25,-0.59375 -0.578125,-0.59375 -0.3125,0 -0.578125,0.25 -0.578125,0.578125 0,0.359375 0.28125,0.578125 0.578125,0.578125 0.359375,0 0.578125,-0.296875 0.578125,-0.5625 z M 0.4375,-5.140625 v 0.34375 c 0.75,0 0.859375,0.078125 0.859375,0.65625 v 3.25 c 0,0.546875 -0.125,0.546875 -0.90625,0.546875 V 0 c 0.34375,-0.03125 0.90625,-0.03125 1.265625,-0.03125 0.125,0 0.8125,0 1.21875,0.03125 v -0.34375 c -0.765625,0 -0.8125,-0.0625 -0.8125,-0.53125 v -4.390625 z m 0,0"
   id="path30" />
    </g>
    <g
   id="use18"
   transform="translate(44.331146,10.295)">
      <path
   d="M 2,-8.296875 0.328125,-8.15625 v 0.34375 c 0.8125,0 0.921875,0.078125 0.921875,0.671875 V 0 H 1.5 C 1.546875,-0.09375 1.890625,-0.6875 1.9375,-0.78125 2.21875,-0.328125 2.71875,0.125 3.484375,0.125 c 1.375,0 2.59375,-1.171875 2.59375,-2.703125 0,-1.515625 -1.125,-2.6875 -2.453125,-2.6875 -0.65625,0 -1.21875,0.296875 -1.625,0.796875 z m 0.015625,4.46875 c 0,-0.21875 0,-0.234375 0.140625,-0.421875 0.28125,-0.4375 0.8125,-0.78125 1.390625,-0.78125 0.359375,0 1.609375,0.140625 1.609375,2.4375 0,0.796875 -0.109375,1.296875 -0.40625,1.734375 -0.234375,0.375 -0.703125,0.734375 -1.3125,0.734375 -0.640625,0 -1.0625,-0.40625 -1.265625,-0.734375 -0.15625,-0.25 -0.15625,-0.296875 -0.15625,-0.5 z m 0,0"
   id="path31" />
    </g>
    <g
   id="g32"
   transform="translate(50.834774,10.295)">
      <path
   d="M 2.0625,-8.296875 0.390625,-8.15625 v 0.34375 c 0.8125,0 0.90625,0.078125 0.90625,0.671875 v 6.25 c 0,0.546875 -0.125,0.546875 -0.90625,0.546875 V 0 c 0.34375,-0.03125 0.921875,-0.03125 1.28125,-0.03125 0.359375,0 0.953125,0 1.296875,0.03125 v -0.34375 c -0.765625,0 -0.90625,0 -0.90625,-0.546875 z m 0,0"
   id="path32" />
    </g>
    <g
   id="g33"
   transform="translate(54.08659,10.295)">
      <path
   d="m 4.578125,-2.765625 c 0.265625,0 0.28125,0 0.28125,-0.234375 0,-1.203125 -0.640625,-2.328125 -2.09375,-2.328125 -1.359375,0 -2.40625,1.234375 -2.40625,2.703125 0,1.578125 1.21875,2.75 2.546875,2.75 1.421875,0 1.953125,-1.296875 1.953125,-1.546875 0,-0.078125 -0.046875,-0.125 -0.125,-0.125 -0.09375,0 -0.125,0.0625 -0.140625,0.125 -0.3125,1 -1.109375,1.28125 -1.625,1.28125 -0.5,0 -1.703125,-0.34375 -1.703125,-2.40625 v -0.21875 z M 1.28125,-3 c 0.09375,-1.875 1.140625,-2.09375 1.484375,-2.09375 1.28125,0 1.34375,1.6875 1.359375,2.09375 z m 0,0"
   id="path33" />
    </g>
  </g>
</g></g></svg>
